<svg xmlns="http://www.w3.org/2000/svg" xmlns:xlink="http://www.w3.org/1999/xlink" width="1010" height="976.95"><rect width="1010" height="976.95" rx="0" ry="0" class="a"/><svg height="976.95" viewBox="0 0 101 97.695" width="1010" xmlns="http://www.w3.org/2000/svg" xmlns:xlink="http://www.w3.org/1999/xlink"><style>@keyframes m{0%{transform:translateX(0)}7.62%{transform:translateX(-101px)}9.87%{transform:translateX(-202px)}9.92%{transform:translateX(-303px)}10.21%{transform:translateX(-404px)}10.25%{transform:translateX(-505px)}11.92%{transform:translateX(-606px)}11.96%{transform:translateX(-707px)}12.9%{transform:translateX(-808px)}12.94%{transform:translateX(-909px)}13.84%{transform:translateX(-1010px)}13.87%{transform:translateX(-1111px)}14.13%{transform:translateX(-1212px)}14.17%{transform:translateX(-1313px)}16.29%{transform:translateX(-1414px)}16.33%{transform:translateX(-1515px)}17.17%{transform:translateX(-1616px)}21.3%{transform:translateX(-1717px)}21.34%{transform:translateX(-1818px)}23.96%{transform:translateX(-1919px)}24%{transform:translateX(-2020px)}24.51%{transform:translateX(-2121px)}24.56%{transform:translateX(-2222px)}25.75%{transform:translateX(-2323px)}25.79%{transform:translateX(-2424px)}27.63%{transform:translateX(-2525px)}27.67%{transform:translateX(-2626px)}28.47%{transform:translateX(-2727px)}28.51%{transform:translateX(-2828px)}30.89%{transform:translateX(-2929px)}30.93%{transform:translateX(-3030px)}35.01%{transform:translateX(-3131px)}35.05%{transform:translateX(-3232px)}35.63%{transform:translateX(-3333px)}37.8%{transform:translateX(-3434px)}37.84%{transform:translateX(-3535px)}38.11%{transform:translateX(-3636px)}38.15%{transform:translateX(-3737px)}41.76%{transform:translateX(-3838px)}41.8%{transform:translateX(-3939px)}42.44%{transform:translateX(-4040px)}42.48%{transform:translateX(-4141px)}43.25%{transform:translateX(-4242px)}45.43%{transform:translateX(-4343px)}45.47%{transform:translateX(-4444px)}47.29%{transform:translateX(-4545px)}47.33%{transform:translateX(-4646px)}49.35%{transform:translateX(-4747px)}49.39%{transform:translateX(-4848px)}49.94%{transform:translateX(-4949px)}53.54%{transform:translateX(-5050px)}53.58%{transform:translateX(-5151px)}53.91%{transform:translateX(-5252px)}53.94%{transform:translateX(-5353px)}56.37%{transform:translateX(-5454px)}56.41%{transform:translateX(-5555px)}56.92%{transform:translateX(-5656px)}56.96%{transform:translateX(-5757px)}57.77%{transform:translateX(-5858px)}59.5%{transform:translateX(-5959px)}59.54%{transform:translateX(-6060px)}61.34%{transform:translateX(-6161px)}61.38%{transform:translateX(-6262px)}63.24%{transform:translateX(-6363px)}63.28%{transform:translateX(-6464px)}63.78%{transform:translateX(-6565px)}69.1%{transform:translateX(-6666px)}69.13%{transform:translateX(-6767px)}69.31%{transform:translateX(-6868px)}69.35%{transform:translateX(-6969px)}70.95%{transform:translateX(-7070px)}70.99%{transform:translateX(-7171px)}71.53%{transform:translateX(-7272px)}71.57%{transform:translateX(-7373px)}72.29%{transform:translateX(-7474px)}72.33%{transform:translateX(-7575px)}73.53%{transform:translateX(-7676px)}73.57%{transform:translateX(-7777px)}75.15%{transform:translateX(-7878px)}75.19%{transform:translateX(-7979px)}76.61%{transform:translateX(-8080px)}76.65%{transform:translateX(-8181px)}77.22%{transform:translateX(-8282px)}85.57%{transform:translateX(-8383px)}85.61%{transform:translateX(-8484px)}86.65%{transform:translateX(-8585px)}86.69%{transform:translateX(-8686px)}87.35%{transform:translateX(-8787px)}87.39%{transform:translateX(-8888px)}88.48%{transform:translateX(-8989px)}88.52%{transform:translateX(-9090px)}88.85%{transform:translateX(-9191px)}88.89%{transform:translateX(-9292px)}89.74%{transform:translateX(-9393px)}89.78%{transform:translateX(-9494px)}92.81%{transform:translateX(-9595px)}92.85%{transform:translateX(-9696px)}93.38%{transform:translateX(-9797px)}to{transform:translateX(-9898px)}}.a{fill:#282d35}.c,.d,.e,.f{fill:#71bef2;white-space:pre}.d,.e,.f{fill:#d290e4}.e,.f{fill:#dbab79}.f{fill:#b9c0cb}.g{fill:#87ff5f}.h,.i,.j{white-space:pre}.i,.j{fill:#66c2cd}.j{fill:#fff}</style><g font-family="Monaco,Consolas,Menlo,'Bitstream Vera Sans Mono','Powerline Symbols',monospace" font-size="1.67"><defs><symbol id="1"><text y="1.67" class="c">~\projects\PowerShell</text></symbol><symbol id="2"><text y="1.67" class="d">❯</text></symbol><symbol id="3"><text y="1.67" class="d">❯</text><text x="2.004" y="1.67" class="e">c</text></symbol><symbol id="4"><text y="1.67" class="d">❯</text><text x="2.004" y="1.67" class="e">cd</text></symbol><symbol id="5"><text y="1.67" class="d">❯</text><text x="2.004" y="1.67" class="e">cd</text><text x="5.01" y="1.67" class="f">s</text></symbol><symbol id="6"><text y="1.67" class="d">❯</text><text x="2.004" y="1.67" class="e">cd</text><text x="5.01" y="1.67" class="f">sr</text></symbol><symbol id="7"><text y="1.67" class="d">❯</text><text x="2.004" y="1.67" class="e">cd</text><text x="5.01" y="1.67" class="f">src</text></symbol><symbol id="8"><text y="1.67" class="c">~\projects\PowerShell\src</text></symbol><symbol id="9"><text y="1.67" class="d">❯</text><text x="2.004" y="1.67" class="e">u</text></symbol><symbol id="10"><text y="1.67" class="d">❯</text><text x="2.004" y="1.67" class="e">up</text></symbol><symbol id="11"><text y="1.67" class="d">❯</text><text x="2.004" y="1.67" class="e">up</text><path class="g" d="M5.01 0h1v2.171h-1z"/><text x="5.01" y="1.67" class="h">1</text></symbol><symbol id="12"><path class="g" d="M0 0h15v2.171H0z"/><text y="1.67" class="h">1. PowerShell</text><text x="15.03" y="1.67" class="f">2.</text><text x="18.036" y="1.67" class="f">projects</text><text x="30.06" y="1.67" class="f">3.</text><text x="33.066" y="1.67" class="f">Nick</text><text x="45.09" y="1.67" class="f">4.</text><text x="48.096" y="1.67" class="f">Users</text><text x="60.12" y="1.67" class="f">5.</text><text x="63.126" y="1.67" class="f">C:\</text></symbol><symbol id="13"><text y="1.67" class="i">1.</text><text x="3.006" y="1.67" class="i">C:\Users\Nick\projects\PowerShell</text></symbol><symbol id="14"><text y="1.67" class="d">❯</text><text x="2.004" y="1.67" class="e">up</text><path class="g" d="M5.01 0h1v2.171h-1z"/><text x="5.01" y="1.67" class="h">2</text></symbol><symbol id="15"><text y="1.67" class="f">1.</text><text x="3.006" y="1.67" class="f">PowerShell</text><path class="g" d="M15.03 0h15v2.171h-15z"/><text x="15.03" y="1.67" class="h">2. projects</text><text x="30.06" y="1.67" class="f">3.</text><text x="33.066" y="1.67" class="f">Nick</text><text x="45.09" y="1.67" class="f">4.</text><text x="48.096" y="1.67" class="f">Users</text><text x="60.12" y="1.67" class="f">5.</text><text x="63.126" y="1.67" class="f">C:\</text></symbol><symbol id="16"><text y="1.67" class="i">2.</text><text x="3.006" y="1.67" class="i">C:\Users\Nick\projects</text></symbol><symbol id="17"><text y="1.67" class="d">❯</text><text x="2.004" y="1.67" class="e">up</text><path class="g" d="M5.01 0h1v2.171h-1z"/><text x="5.01" y="1.67" class="h">3</text></symbol><symbol id="18"><text y="1.67" class="f">1.</text><text x="3.006" y="1.67" class="f">PowerShell</text><text x="15.03" y="1.67" class="f">2.</text><text x="18.036" y="1.67" class="f">projects</text><path class="g" d="M30.06 0h15v2.171h-15z"/><text x="30.06" y="1.67" class="h">3. Nick</text><text x="45.09" y="1.67" class="f">4.</text><text x="48.096" y="1.67" class="f">Users</text><text x="60.12" y="1.67" class="f">5.</text><text x="63.126" y="1.67" class="f">C:\</text></symbol><symbol id="19"><text y="1.67" class="i">3.</text><text x="3.006" y="1.67" class="i">C:\Users\Nick</text></symbol><symbol id="20"><text y="1.67" class="d">❯</text><text x="2.004" y="1.67" class="e">up</text><text x="5.01" y="1.67" class="j">3</text></symbol><symbol id="21"><text y="1.67" class="c">~</text></symbol><symbol id="22"><text y="1.67" class="d">❯</text><text x="2.004" y="1.67" class="e">cd-</text></symbol><symbol id="23"><text y="1.67" class="d">❯</text><text x="2.004" y="1.67" class="e">cd-</text><path class="g" d="M6.012 0h1v2.171h-1z"/><text x="6.012" y="1.67" class="h">1</text></symbol><symbol id="24"><path class="g" d="M0 0h15v2.171H0z"/><text y="1.67" class="h">1. src</text><text x="15.03" y="1.67" class="f">2.</text><text x="18.036" y="1.67" class="f">PowerShell</text></symbol><symbol id="25"><text y="1.67" class="i">1.</text><text x="3.006" y="1.67" class="i">C:\Users\Nick\projects\PowerShell\src</text></symbol><symbol id="26"><text y="1.67" class="d">❯</text><text x="2.004" y="1.67" class="e">cd-</text><path class="g" d="M6.012 0h1v2.171h-1z"/><text x="6.012" y="1.67" class="h">2</text></symbol><symbol id="27"><text y="1.67" class="f">1.</text><text x="3.006" y="1.67" class="f">src</text><path class="g" d="M15.03 0h15v2.171h-15z"/><text x="15.03" y="1.67" class="h">2. PowerShell</text></symbol><symbol id="28"><text y="1.67" class="i">2.</text><text x="3.006" y="1.67" class="i">C:\Users\Nick\projects\PowerShell</text></symbol><symbol id="29"><text y="1.67" class="d">❯</text><text x="2.004" y="1.67" class="e">cd-</text><text x="6.012" y="1.67" class="j">2</text></symbol><symbol id="30"><text y="1.67" class="d">❯</text><text x="2.004" y="1.67" class="e">cd+</text></symbol><symbol id="31"><text y="1.67" class="d">❯</text><text x="2.004" y="1.67" class="e">cd+</text><path class="g" d="M6.012 0h1v2.171h-1z"/><text x="6.012" y="1.67" class="h">1</text></symbol><symbol id="32"><path class="g" d="M0 0h9v2.171H0z"/><text y="1.67" class="h">1. src</text><text x="9.018" y="1.67" class="f">2.</text><text x="12.024" y="1.67" class="f">Nick</text></symbol><symbol id="33"><text y="1.67" class="d">❯</text><text x="2.004" y="1.67" class="e">cd+</text><path class="g" d="M6.012 0h1v2.171h-1z"/><text x="6.012" y="1.67" class="h">2</text></symbol><symbol id="34"><text y="1.67" class="f">1.</text><text x="3.006" y="1.67" class="f">src</text><path class="g" d="M9.018 0h9v2.171h-9z"/><text x="9.018" y="1.67" class="h">2. Nick</text></symbol><symbol id="35"><text y="1.67" class="i">2.</text><text x="3.006" y="1.67" class="i">C:\Users\Nick</text></symbol><symbol id="36"><text y="1.67" class="d">❯</text><text x="2.004" y="1.67" class="e">cd+</text><text x="6.012" y="1.67" class="j">2</text></symbol><symbol id="37"><text y="1.67" class="d">❯</text><text x="2.004" y="1.67" class="e">cd-</text><text x="6.012" y="1.67" class="f">s</text></symbol><symbol id="38"><text y="1.67" class="d">❯</text><text x="2.004" y="1.67" class="e">cd-</text><text x="6.012" y="1.67" class="f">sr</text></symbol><symbol id="39"><text y="1.67" class="d">❯</text><text x="2.004" y="1.67" class="e">cd-</text><text x="6.012" y="1.67" class="f">src</text></symbol><symbol id="40"><text y="1.67" class="d">❯</text><text x="2.004" y="1.67" class="e">up</text><text x="5.01" y="1.67" class="f">p</text></symbol><symbol id="41"><text y="1.67" class="d">❯</text><text x="2.004" y="1.67" class="e">up</text><text x="5.01" y="1.67" class="f">pr</text></symbol><symbol id="42"><text y="1.67" class="d">❯</text><text x="2.004" y="1.67" class="e">up</text><text x="5.01" y="1.67" class="f">pro</text></symbol><symbol id="43"><text y="1.67" class="c">~\projects</text></symbol><symbol id="a"><path fill="transparent" d="M0 0h101v45H0z"/></symbol><symbol id="b"><path fill="#6f7683" d="M0 0h1.102v2.171H0z"/></symbol></defs><path class="a" d="M0 0h101v97.695H0z"/><g style="animation-duration:22.0662693s;animation-iteration-count:infinite;animation-name:m;animation-timing-function:steps(1,end)"><svg width="9999"><svg><use xlink:href="#a"/><use xlink:href="#b" x="-.004"/></svg><svg x="101"><use xlink:href="#a"/><use xlink:href="#b" x="1.996" y="4.317"/><use xlink:href="#1" y="2.171"/><use xlink:href="#2" y="4.342"/></svg><svg x="202"><use xlink:href="#a"/><use xlink:href="#b" x="1.996" y="4.317"/><use xlink:href="#1" y="2.171"/><use xlink:href="#2" y="4.342"/></svg><svg x="303"><use xlink:href="#a"/><use xlink:href="#b" x="2.996" y="4.317"/><use xlink:href="#1" y="2.171"/><use xlink:href="#3" y="4.342"/></svg><svg x="404"><use xlink:href="#a"/><use xlink:href="#b" x="2.996" y="4.317"/><use xlink:href="#1" y="2.171"/><use xlink:href="#3" y="4.342"/></svg><svg x="505"><use xlink:href="#a"/><use xlink:href="#b" x="3.996" y="4.317"/><use xlink:href="#1" y="2.171"/><use xlink:href="#4" y="4.342"/></svg><svg x="606"><use xlink:href="#a"/><use xlink:href="#b" x="3.996" y="4.317"/><use xlink:href="#1" y="2.171"/><use xlink:href="#4" y="4.342"/></svg><svg x="707"><use xlink:href="#a"/><use xlink:href="#b" x="4.996" y="4.317"/><use xlink:href="#1" y="2.171"/><use xlink:href="#4" y="4.342"/></svg><svg x="808"><use xlink:href="#a"/><use xlink:href="#b" x="4.996" y="4.317"/><use xlink:href="#1" y="2.171"/><use xlink:href="#4" y="4.342"/></svg><svg x="909"><use xlink:href="#a"/><use xlink:href="#b" x="5.996" y="4.317"/><use xlink:href="#1" y="2.171"/><use xlink:href="#5" y="4.342"/></svg><svg x="1010"><use xlink:href="#a"/><use xlink:href="#b" x="5.996" y="4.317"/><use xlink:href="#1" y="2.171"/><use xlink:href="#5" y="4.342"/></svg><svg x="1111"><use xlink:href="#a"/><use xlink:href="#b" x="6.996" y="4.317"/><use xlink:href="#1" y="2.171"/><use xlink:href="#6" y="4.342"/></svg><svg x="1212"><use xlink:href="#a"/><use xlink:href="#b" x="6.996" y="4.317"/><use xlink:href="#1" y="2.171"/><use xlink:href="#6" y="4.342"/></svg><svg x="1313"><use xlink:href="#a"/><use xlink:href="#b" x="7.996" y="4.317"/><use xlink:href="#1" y="2.171"/><use xlink:href="#7" y="4.342"/></svg><svg x="1414"><use xlink:href="#a"/><use xlink:href="#b" x="7.996" y="4.317"/><use xlink:href="#1" y="2.171"/><use xlink:href="#7" y="4.342"/></svg><svg x="1515"><use xlink:href="#a"/><use xlink:href="#b" x="-.004" y="6.488"/><use xlink:href="#1" y="2.171"/><use xlink:href="#7" y="4.342"/></svg><svg x="1616"><use xlink:href="#a"/><use xlink:href="#b" x="1.996" y="10.83"/><use xlink:href="#1" y="2.171"/><use xlink:href="#7" y="4.342"/><use xlink:href="#8" y="8.684"/><use xlink:href="#2" y="10.855"/></svg><svg x="1717"><use xlink:href="#a"/><use xlink:href="#b" x="1.996" y="10.83"/><use xlink:href="#1" y="2.171"/><use xlink:href="#7" y="4.342"/><use xlink:href="#8" y="8.684"/><use xlink:href="#2" y="10.855"/></svg><svg x="1818"><use xlink:href="#a"/><use xlink:href="#b" x="2.996" y="10.83"/><use xlink:href="#1" y="2.171"/><use xlink:href="#7" y="4.342"/><use xlink:href="#8" y="8.684"/><use xlink:href="#9" y="10.855"/></svg><svg x="1919"><use xlink:href="#a"/><use xlink:href="#b" x="2.996" y="10.83"/><use xlink:href="#1" y="2.171"/><use xlink:href="#7" y="4.342"/><use xlink:href="#8" y="8.684"/><use xlink:href="#9" y="10.855"/></svg><svg x="2020"><use xlink:href="#a"/><use xlink:href="#b" x="3.996" y="10.83"/><use xlink:href="#1" y="2.171"/><use xlink:href="#7" y="4.342"/><use xlink:href="#8" y="8.684"/><use xlink:href="#10" y="10.855"/></svg><svg x="2121"><use xlink:href="#a"/><use xlink:href="#b" x="3.996" y="10.83"/><use xlink:href="#1" y="2.171"/><use xlink:href="#7" y="4.342"/><use xlink:href="#8" y="8.684"/><use xlink:href="#10" y="10.855"/></svg><svg x="2222"><use xlink:href="#a"/><use xlink:href="#b" x="4.996" y="10.83"/><use xlink:href="#1" y="2.171"/><use xlink:href="#7" y="4.342"/><use xlink:href="#8" y="8.684"/><use xlink:href="#10" y="10.855"/></svg><svg x="2323"><use xlink:href="#a"/><use xlink:href="#b" x="4.996" y="10.83"/><use xlink:href="#1" y="2.171"/><use xlink:href="#7" y="4.342"/><use xlink:href="#8" y="8.684"/><use xlink:href="#10" y="10.855"/><text y="14.696" class="f">1.</text><text x="3.006" y="14.696" class="f">PowerShell</text><text x="15.03" y="14.696" class="f">2.</text><text x="18.036" y="14.696" class="f">projects</text><text x="30.06" y="14.696" class="f">3.</text><text x="33.066" y="14.696" class="f">Nick</text><text x="45.09" y="14.696" class="f">4.</text><text x="48.096" y="14.696" class="f">Users</text><text x="60.12" y="14.696" class="f">5.</text><text x="63.126" y="14.696" class="f">C:\</text></svg><svg x="2424"><use xlink:href="#a"/><use xlink:href="#b" x="4.996" y="10.83"/><use xlink:href="#1" y="2.171"/><use xlink:href="#7" y="4.342"/><use xlink:href="#8" y="8.684"/><use xlink:href="#11" y="10.855"/><use xlink:href="#12" y="13.026"/><use xlink:href="#13" y="17.368"/></svg><svg x="2525"><use xlink:href="#a"/><use xlink:href="#b" x="4.996" y="10.83"/><use xlink:href="#1" y="2.171"/><use xlink:href="#7" y="4.342"/><use xlink:href="#8" y="8.684"/><use xlink:href="#11" y="10.855"/><use xlink:href="#12" y="13.026"/><use xlink:href="#13" y="17.368"/></svg><svg x="2626"><use xlink:href="#a"/><use xlink:href="#b" x="4.996" y="10.83"/><use xlink:href="#1" y="2.171"/><use xlink:href="#7" y="4.342"/><use xlink:href="#8" y="8.684"/><use xlink:href="#14" y="10.855"/><use xlink:href="#15" y="13.026"/><use xlink:href="#16" y="17.368"/></svg><svg x="2727"><use xlink:href="#a"/><use xlink:href="#b" x="4.996" y="10.83"/><use xlink:href="#1" y="2.171"/><use xlink:href="#7" y="4.342"/><use xlink:href="#8" y="8.684"/><use xlink:href="#14" y="10.855"/><use xlink:href="#15" y="13.026"/><use xlink:href="#16" y="17.368"/></svg><svg x="2828"><use xlink:href="#a"/><use xlink:href="#b" x="4.996" y="10.83"/><use xlink:href="#1" y="2.171"/><use xlink:href="#7" y="4.342"/><use xlink:href="#8" y="8.684"/><use xlink:href="#17" y="10.855"/><use xlink:href="#18" y="13.026"/><use xlink:href="#19" y="17.368"/></svg><svg x="2929"><use xlink:href="#a"/><use xlink:href="#b" x="5.996" y="10.83"/><use xlink:href="#1" y="2.171"/><use xlink:href="#7" y="4.342"/><use xlink:href="#8" y="8.684"/><use xlink:href="#17" y="10.855"/><use xlink:href="#18" y="13.026"/><use xlink:href="#19" y="17.368"/></svg><svg x="3030"><use xlink:href="#a"/><use xlink:href="#b" x="5.996" y="10.83"/><use xlink:href="#1" y="2.171"/><use xlink:href="#7" y="4.342"/><use xlink:href="#8" y="8.684"/><use xlink:href="#20" y="10.855"/></svg><svg x="3131"><use xlink:href="#a"/><use xlink:href="#b" x="5.996" y="10.83"/><use xlink:href="#1" y="2.171"/><use xlink:href="#7" y="4.342"/><use xlink:href="#8" y="8.684"/><use xlink:href="#20" y="10.855"/></svg><svg x="3232"><use xlink:href="#a"/><use xlink:href="#b" x="-.004" y="13.001"/><use xlink:href="#1" y="2.171"/><use xlink:href="#7" y="4.342"/><use xlink:href="#8" y="8.684"/><use xlink:href="#20" y="10.855"/></svg><svg x="3333"><use xlink:href="#a"/><use xlink:href="#b" x="1.996" y="17.343"/><use xlink:href="#1" y="2.171"/><use xlink:href="#7" y="4.342"/><use xlink:href="#8" y="8.684"/><use xlink:href="#20" y="10.855"/><use xlink:href="#21" y="15.197"/><use xlink:href="#2" y="17.368"/></svg><svg x="3434"><use xlink:href="#a"/><use xlink:href="#b" x="1.996" y="17.343"/><use xlink:href="#1" y="2.171"/><use xlink:href="#7" y="4.342"/><use xlink:href="#8" y="8.684"/><use xlink:href="#20" y="10.855"/><use xlink:href="#21" y="15.197"/><use xlink:href="#2" y="17.368"/></svg><svg x="3535"><use xlink:href="#a"/><use xlink:href="#b" x="2.996" y="17.343"/><use xlink:href="#1" y="2.171"/><use xlink:href="#7" y="4.342"/><use xlink:href="#8" y="8.684"/><use xlink:href="#20" y="10.855"/><use xlink:href="#21" y="15.197"/><use xlink:href="#3" y="17.368"/></svg><svg x="3636"><use xlink:href="#a"/><use xlink:href="#b" x="2.996" y="17.343"/><use xlink:href="#1" y="2.171"/><use xlink:href="#7" y="4.342"/><use xlink:href="#8" y="8.684"/><use xlink:href="#20" y="10.855"/><use xlink:href="#21" y="15.197"/><use xlink:href="#3" y="17.368"/></svg><svg x="3737"><use xlink:href="#a"/><use xlink:href="#b" x="3.996" y="17.343"/><use xlink:href="#1" y="2.171"/><use xlink:href="#7" y="4.342"/><use xlink:href="#8" y="8.684"/><use xlink:href="#20" y="10.855"/><use xlink:href="#21" y="15.197"/><use xlink:href="#4" y="17.368"/></svg><svg x="3838"><use xlink:href="#a"/><use xlink:href="#b" x="3.996" y="17.343"/><use xlink:href="#1" y="2.171"/><use xlink:href="#7" y="4.342"/><use xlink:href="#8" y="8.684"/><use xlink:href="#20" y="10.855"/><use xlink:href="#21" y="15.197"/><use xlink:href="#4" y="17.368"/></svg><svg x="3939"><use xlink:href="#a"/><use xlink:href="#b" x="4.996" y="17.343"/><use xlink:href="#1" y="2.171"/><use xlink:href="#7" y="4.342"/><use xlink:href="#8" y="8.684"/><use xlink:href="#20" y="10.855"/><use xlink:href="#21" y="15.197"/><use xlink:href="#22" y="17.368"/></svg><svg x="4040"><use xlink:href="#a"/><use xlink:href="#b" x="4.996" y="17.343"/><use xlink:href="#1" y="2.171"/><use xlink:href="#7" y="4.342"/><use xlink:href="#8" y="8.684"/><use xlink:href="#20" y="10.855"/><use xlink:href="#21" y="15.197"/><use xlink:href="#22" y="17.368"/></svg><svg x="4141"><use xlink:href="#a"/><use xlink:href="#b" x="5.996" y="17.343"/><use xlink:href="#1" y="2.171"/><use xlink:href="#7" y="4.342"/><use xlink:href="#8" y="8.684"/><use xlink:href="#20" y="10.855"/><use xlink:href="#21" y="15.197"/><use xlink:href="#22" y="17.368"/></svg><svg x="4242"><use xlink:href="#a"/><use xlink:href="#b" x="5.996" y="17.343"/><use xlink:href="#1" y="2.171"/><use xlink:href="#7" y="4.342"/><use xlink:href="#8" y="8.684"/><use xlink:href="#20" y="10.855"/><use xlink:href="#21" y="15.197"/><use xlink:href="#23" y="17.368"/><use xlink:href="#24" y="19.539"/><use xlink:href="#25" y="23.881"/></svg><svg x="4343"><use xlink:href="#a"/><use xlink:href="#b" x="5.996" y="17.343"/><use xlink:href="#1" y="2.171"/><use xlink:href="#7" y="4.342"/><use xlink:href="#8" y="8.684"/><use xlink:href="#20" y="10.855"/><use xlink:href="#21" y="15.197"/><use xlink:href="#23" y="17.368"/><use xlink:href="#24" y="19.539"/><use xlink:href="#25" y="23.881"/></svg><svg x="4444"><use xlink:href="#a"/><use xlink:href="#b" x="5.996" y="17.343"/><use xlink:href="#1" y="2.171"/><use xlink:href="#7" y="4.342"/><use xlink:href="#8" y="8.684"/><use xlink:href="#20" y="10.855"/><use xlink:href="#21" y="15.197"/><use xlink:href="#26" y="17.368"/><use xlink:href="#27" y="19.539"/><use xlink:href="#28" y="23.881"/></svg><svg x="4545"><use xlink:href="#a"/><use xlink:href="#b" x="6.996" y="17.343"/><use xlink:href="#1" y="2.171"/><use xlink:href="#7" y="4.342"/><use xlink:href="#8" y="8.684"/><use xlink:href="#20" y="10.855"/><use xlink:href="#21" y="15.197"/><use xlink:href="#26" y="17.368"/><use xlink:href="#27" y="19.539"/><use xlink:href="#28" y="23.881"/></svg><svg x="4646"><use xlink:href="#a"/><use xlink:href="#b" x="6.996" y="17.343"/><use xlink:href="#1" y="2.171"/><use xlink:href="#7" y="4.342"/><use xlink:href="#8" y="8.684"/><use xlink:href="#20" y="10.855"/><use xlink:href="#21" y="15.197"/><use xlink:href="#29" y="17.368"/></svg><svg x="4747"><use xlink:href="#a"/><use xlink:href="#b" x="6.996" y="17.343"/><use xlink:href="#1" y="2.171"/><use xlink:href="#7" y="4.342"/><use xlink:href="#8" y="8.684"/><use xlink:href="#20" y="10.855"/><use xlink:href="#21" y="15.197"/><use xlink:href="#29" y="17.368"/></svg><svg x="4848"><use xlink:href="#a"/><use xlink:href="#b" x="-.004" y="19.514"/><use xlink:href="#1" y="2.171"/><use xlink:href="#7" y="4.342"/><use xlink:href="#8" y="8.684"/><use xlink:href="#20" y="10.855"/><use xlink:href="#21" y="15.197"/><use xlink:href="#29" y="17.368"/></svg><svg x="4949"><use xlink:href="#a"/><use xlink:href="#b" x="1.996" y="23.856"/><use xlink:href="#1" y="2.171"/><use xlink:href="#7" y="4.342"/><use xlink:href="#8" y="8.684"/><use xlink:href="#20" y="10.855"/><use xlink:href="#21" y="15.197"/><use xlink:href="#29" y="17.368"/><use xlink:href="#1" y="21.71"/><use xlink:href="#2" y="23.881"/></svg><svg x="5050"><use xlink:href="#a"/><use xlink:href="#b" x="1.996" y="23.856"/><use xlink:href="#1" y="2.171"/><use xlink:href="#7" y="4.342"/><use xlink:href="#8" y="8.684"/><use xlink:href="#20" y="10.855"/><use xlink:href="#21" y="15.197"/><use xlink:href="#29" y="17.368"/><use xlink:href="#1" y="21.71"/><use xlink:href="#2" y="23.881"/></svg><svg x="5151"><use xlink:href="#a"/><use xlink:href="#b" x="2.996" y="23.856"/><use xlink:href="#1" y="2.171"/><use xlink:href="#7" y="4.342"/><use xlink:href="#8" y="8.684"/><use xlink:href="#20" y="10.855"/><use xlink:href="#21" y="15.197"/><use xlink:href="#29" y="17.368"/><use xlink:href="#1" y="21.71"/><use xlink:href="#3" y="23.881"/></svg><svg x="5252"><use xlink:href="#a"/><use xlink:href="#b" x="2.996" y="23.856"/><use xlink:href="#1" y="2.171"/><use xlink:href="#7" y="4.342"/><use xlink:href="#8" y="8.684"/><use xlink:href="#20" y="10.855"/><use xlink:href="#21" y="15.197"/><use xlink:href="#29" y="17.368"/><use xlink:href="#1" y="21.71"/><use xlink:href="#3" y="23.881"/></svg><svg x="5353"><use xlink:href="#a"/><use xlink:href="#b" x="3.996" y="23.856"/><use xlink:href="#1" y="2.171"/><use xlink:href="#7" y="4.342"/><use xlink:href="#8" y="8.684"/><use xlink:href="#20" y="10.855"/><use xlink:href="#21" y="15.197"/><use xlink:href="#29" y="17.368"/><use xlink:href="#1" y="21.71"/><use xlink:href="#4" y="23.881"/></svg><svg x="5454"><use xlink:href="#a"/><use xlink:href="#b" x="3.996" y="23.856"/><use xlink:href="#1" y="2.171"/><use xlink:href="#7" y="4.342"/><use xlink:href="#8" y="8.684"/><use xlink:href="#20" y="10.855"/><use xlink:href="#21" y="15.197"/><use xlink:href="#29" y="17.368"/><use xlink:href="#1" y="21.71"/><use xlink:href="#4" y="23.881"/></svg><svg x="5555"><use xlink:href="#a"/><use xlink:href="#b" x="4.996" y="23.856"/><use xlink:href="#1" y="2.171"/><use xlink:href="#7" y="4.342"/><use xlink:href="#8" y="8.684"/><use xlink:href="#20" y="10.855"/><use xlink:href="#21" y="15.197"/><use xlink:href="#29" y="17.368"/><use xlink:href="#1" y="21.71"/><use xlink:href="#30" y="23.881"/></svg><svg x="5656"><use xlink:href="#a"/><use xlink:href="#b" x="4.996" y="23.856"/><use xlink:href="#1" y="2.171"/><use xlink:href="#7" y="4.342"/><use xlink:href="#8" y="8.684"/><use xlink:href="#20" y="10.855"/><use xlink:href="#21" y="15.197"/><use xlink:href="#29" y="17.368"/><use xlink:href="#1" y="21.71"/><use xlink:href="#30" y="23.881"/></svg><svg x="5757"><use xlink:href="#a"/><use xlink:href="#b" x="5.996" y="23.856"/><use xlink:href="#1" y="2.171"/><use xlink:href="#7" y="4.342"/><use xlink:href="#8" y="8.684"/><use xlink:href="#20" y="10.855"/><use xlink:href="#21" y="15.197"/><use xlink:href="#29" y="17.368"/><use xlink:href="#1" y="21.71"/><use xlink:href="#30" y="23.881"/></svg><svg x="5858"><use xlink:href="#a"/><use xlink:href="#b" x="5.996" y="23.856"/><use xlink:href="#1" y="2.171"/><use xlink:href="#7" y="4.342"/><use xlink:href="#8" y="8.684"/><use xlink:href="#20" y="10.855"/><use xlink:href="#21" y="15.197"/><use xlink:href="#29" y="17.368"/><use xlink:href="#1" y="21.71"/><use xlink:href="#31" y="23.881"/><use xlink:href="#32" y="26.052"/><use xlink:href="#25" y="30.394"/></svg><svg x="5959"><use xlink:href="#a"/><use xlink:href="#b" x="5.996" y="23.856"/><use xlink:href="#1" y="2.171"/><use xlink:href="#7" y="4.342"/><use xlink:href="#8" y="8.684"/><use xlink:href="#20" y="10.855"/><use xlink:href="#21" y="15.197"/><use xlink:href="#29" y="17.368"/><use xlink:href="#1" y="21.71"/><use xlink:href="#31" y="23.881"/><use xlink:href="#32" y="26.052"/><use xlink:href="#25" y="30.394"/></svg><svg x="6060"><use xlink:href="#a"/><use xlink:href="#b" x="5.996" y="23.856"/><use xlink:href="#1" y="2.171"/><use xlink:href="#7" y="4.342"/><use xlink:href="#8" y="8.684"/><use xlink:href="#20" y="10.855"/><use xlink:href="#21" y="15.197"/><use xlink:href="#29" y="17.368"/><use xlink:href="#1" y="21.71"/><use xlink:href="#33" y="23.881"/><use xlink:href="#34" y="26.052"/><use xlink:href="#35" y="30.394"/></svg><svg x="6161"><use xlink:href="#a"/><use xlink:href="#b" x="6.996" y="23.856"/><use xlink:href="#1" y="2.171"/><use xlink:href="#7" y="4.342"/><use xlink:href="#8" y="8.684"/><use xlink:href="#20" y="10.855"/><use xlink:href="#21" y="15.197"/><use xlink:href="#29" y="17.368"/><use xlink:href="#1" y="21.71"/><use xlink:href="#33" y="23.881"/><use xlink:href="#34" y="26.052"/><use xlink:href="#35" y="30.394"/></svg><svg x="6262"><use xlink:href="#a"/><use xlink:href="#b" x="6.996" y="23.856"/><use xlink:href="#1" y="2.171"/><use xlink:href="#7" y="4.342"/><use xlink:href="#8" y="8.684"/><use xlink:href="#20" y="10.855"/><use xlink:href="#21" y="15.197"/><use xlink:href="#29" y="17.368"/><use xlink:href="#1" y="21.71"/><use xlink:href="#36" y="23.881"/></svg><svg x="6363"><use xlink:href="#a"/><use xlink:href="#b" x="6.996" y="23.856"/><use xlink:href="#1" y="2.171"/><use xlink:href="#7" y="4.342"/><use xlink:href="#8" y="8.684"/><use xlink:href="#20" y="10.855"/><use xlink:href="#21" y="15.197"/><use xlink:href="#29" y="17.368"/><use xlink:href="#1" y="21.71"/><use xlink:href="#36" y="23.881"/></svg><svg x="6464"><use xlink:href="#a"/><use xlink:href="#b" x="-.004" y="26.027"/><use xlink:href="#1" y="2.171"/><use xlink:href="#7" y="4.342"/><use xlink:href="#8" y="8.684"/><use xlink:href="#20" y="10.855"/><use xlink:href="#21" y="15.197"/><use xlink:href="#29" y="17.368"/><use xlink:href="#1" y="21.71"/><use xlink:href="#36" y="23.881"/></svg><svg x="6565"><use xlink:href="#a"/><use xlink:href="#b" x="1.996" y="30.369"/><use xlink:href="#1" y="2.171"/><use xlink:href="#7" y="4.342"/><use xlink:href="#8" y="8.684"/><use xlink:href="#20" y="10.855"/><use xlink:href="#21" y="15.197"/><use xlink:href="#29" y="17.368"/><use xlink:href="#1" y="21.71"/><use xlink:href="#36" y="23.881"/><use xlink:href="#21" y="28.223"/><use xlink:href="#2" y="30.394"/></svg><svg x="6666"><use xlink:href="#a"/><use xlink:href="#b" x="1.996" y="30.369"/><use xlink:href="#1" y="2.171"/><use xlink:href="#7" y="4.342"/><use xlink:href="#8" y="8.684"/><use xlink:href="#20" y="10.855"/><use xlink:href="#21" y="15.197"/><use xlink:href="#29" y="17.368"/><use xlink:href="#1" y="21.71"/><use xlink:href="#36" y="23.881"/><use xlink:href="#21" y="28.223"/><use xlink:href="#2" y="30.394"/></svg><svg x="6767"><use xlink:href="#a"/><use xlink:href="#b" x="2.996" y="30.369"/><use xlink:href="#1" y="2.171"/><use xlink:href="#7" y="4.342"/><use xlink:href="#8" y="8.684"/><use xlink:href="#20" y="10.855"/><use xlink:href="#21" y="15.197"/><use xlink:href="#29" y="17.368"/><use xlink:href="#1" y="21.71"/><use xlink:href="#36" y="23.881"/><use xlink:href="#21" y="28.223"/><use xlink:href="#3" y="30.394"/></svg><svg x="6868"><use xlink:href="#a"/><use xlink:href="#b" x="2.996" y="30.369"/><use xlink:href="#1" y="2.171"/><use xlink:href="#7" y="4.342"/><use xlink:href="#8" y="8.684"/><use xlink:href="#20" y="10.855"/><use xlink:href="#21" y="15.197"/><use xlink:href="#29" y="17.368"/><use xlink:href="#1" y="21.71"/><use xlink:href="#36" y="23.881"/><use xlink:href="#21" y="28.223"/><use xlink:href="#3" y="30.394"/></svg><svg x="6969"><use xlink:href="#a"/><use xlink:href="#b" x="3.996" y="30.369"/><use xlink:href="#1" y="2.171"/><use xlink:href="#7" y="4.342"/><use xlink:href="#8" y="8.684"/><use xlink:href="#20" y="10.855"/><use xlink:href="#21" y="15.197"/><use xlink:href="#29" y="17.368"/><use xlink:href="#1" y="21.71"/><use xlink:href="#36" y="23.881"/><use xlink:href="#21" y="28.223"/><use xlink:href="#4" y="30.394"/></svg><svg x="7070"><use xlink:href="#a"/><use xlink:href="#b" x="3.996" y="30.369"/><use xlink:href="#1" y="2.171"/><use xlink:href="#7" y="4.342"/><use xlink:href="#8" y="8.684"/><use xlink:href="#20" y="10.855"/><use xlink:href="#21" y="15.197"/><use xlink:href="#29" y="17.368"/><use xlink:href="#1" y="21.71"/><use xlink:href="#36" y="23.881"/><use xlink:href="#21" y="28.223"/><use xlink:href="#4" y="30.394"/></svg><svg x="7171"><use xlink:href="#a"/><use xlink:href="#b" x="4.996" y="30.369"/><use xlink:href="#1" y="2.171"/><use xlink:href="#7" y="4.342"/><use xlink:href="#8" y="8.684"/><use xlink:href="#20" y="10.855"/><use xlink:href="#21" y="15.197"/><use xlink:href="#29" y="17.368"/><use xlink:href="#1" y="21.71"/><use xlink:href="#36" y="23.881"/><use xlink:href="#21" y="28.223"/><use xlink:href="#22" y="30.394"/></svg><svg x="7272"><use xlink:href="#a"/><use xlink:href="#b" x="4.996" y="30.369"/><use xlink:href="#1" y="2.171"/><use xlink:href="#7" y="4.342"/><use xlink:href="#8" y="8.684"/><use xlink:href="#20" y="10.855"/><use xlink:href="#21" y="15.197"/><use xlink:href="#29" y="17.368"/><use xlink:href="#1" y="21.71"/><use xlink:href="#36" y="23.881"/><use xlink:href="#21" y="28.223"/><use xlink:href="#22" y="30.394"/></svg><svg x="7373"><use xlink:href="#a"/><use xlink:href="#b" x="5.996" y="30.369"/><use xlink:href="#1" y="2.171"/><use xlink:href="#7" y="4.342"/><use xlink:href="#8" y="8.684"/><use xlink:href="#20" y="10.855"/><use xlink:href="#21" y="15.197"/><use xlink:href="#29" y="17.368"/><use xlink:href="#1" y="21.71"/><use xlink:href="#36" y="23.881"/><use xlink:href="#21" y="28.223"/><use xlink:href="#22" y="30.394"/></svg><svg x="7474"><use xlink:href="#a"/><use xlink:href="#b" x="5.996" y="30.369"/><use xlink:href="#1" y="2.171"/><use xlink:href="#7" y="4.342"/><use xlink:href="#8" y="8.684"/><use xlink:href="#20" y="10.855"/><use xlink:href="#21" y="15.197"/><use xlink:href="#29" y="17.368"/><use xlink:href="#1" y="21.71"/><use xlink:href="#36" y="23.881"/><use xlink:href="#21" y="28.223"/><use xlink:href="#22" y="30.394"/></svg><svg x="7575"><use xlink:href="#a"/><use xlink:href="#b" x="6.996" y="30.369"/><use xlink:href="#1" y="2.171"/><use xlink:href="#7" y="4.342"/><use xlink:href="#8" y="8.684"/><use xlink:href="#20" y="10.855"/><use xlink:href="#21" y="15.197"/><use xlink:href="#29" y="17.368"/><use xlink:href="#1" y="21.71"/><use xlink:href="#36" y="23.881"/><use xlink:href="#21" y="28.223"/><use xlink:href="#37" y="30.394"/></svg><svg x="7676"><use xlink:href="#a"/><use xlink:href="#b" x="6.996" y="30.369"/><use xlink:href="#1" y="2.171"/><use xlink:href="#7" y="4.342"/><use xlink:href="#8" y="8.684"/><use xlink:href="#20" y="10.855"/><use xlink:href="#21" y="15.197"/><use xlink:href="#29" y="17.368"/><use xlink:href="#1" y="21.71"/><use xlink:href="#36" y="23.881"/><use xlink:href="#21" y="28.223"/><use xlink:href="#37" y="30.394"/></svg><svg x="7777"><use xlink:href="#a"/><use xlink:href="#b" x="7.996" y="30.369"/><use xlink:href="#1" y="2.171"/><use xlink:href="#7" y="4.342"/><use xlink:href="#8" y="8.684"/><use xlink:href="#20" y="10.855"/><use xlink:href="#21" y="15.197"/><use xlink:href="#29" y="17.368"/><use xlink:href="#1" y="21.71"/><use xlink:href="#36" y="23.881"/><use xlink:href="#21" y="28.223"/><use xlink:href="#38" y="30.394"/></svg><svg x="7878"><use xlink:href="#a"/><use xlink:href="#b" x="7.996" y="30.369"/><use xlink:href="#1" y="2.171"/><use xlink:href="#7" y="4.342"/><use xlink:href="#8" y="8.684"/><use xlink:href="#20" y="10.855"/><use xlink:href="#21" y="15.197"/><use xlink:href="#29" y="17.368"/><use xlink:href="#1" y="21.71"/><use xlink:href="#36" y="23.881"/><use xlink:href="#21" y="28.223"/><use xlink:href="#38" y="30.394"/></svg><svg x="7979"><use xlink:href="#a"/><use xlink:href="#b" x="8.996" y="30.369"/><use xlink:href="#1" y="2.171"/><use xlink:href="#7" y="4.342"/><use xlink:href="#8" y="8.684"/><use xlink:href="#20" y="10.855"/><use xlink:href="#21" y="15.197"/><use xlink:href="#29" y="17.368"/><use xlink:href="#1" y="21.71"/><use xlink:href="#36" y="23.881"/><use xlink:href="#21" y="28.223"/><use xlink:href="#39" y="30.394"/></svg><svg x="8080"><use xlink:href="#a"/><use xlink:href="#b" x="8.996" y="30.369"/><use xlink:href="#1" y="2.171"/><use xlink:href="#7" y="4.342"/><use xlink:href="#8" y="8.684"/><use xlink:href="#20" y="10.855"/><use xlink:href="#21" y="15.197"/><use xlink:href="#29" y="17.368"/><use xlink:href="#1" y="21.71"/><use xlink:href="#36" y="23.881"/><use xlink:href="#21" y="28.223"/><use xlink:href="#39" y="30.394"/></svg><svg x="8181"><use xlink:href="#a"/><use xlink:href="#b" x="-.004" y="32.54"/><use xlink:href="#1" y="2.171"/><use xlink:href="#7" y="4.342"/><use xlink:href="#8" y="8.684"/><use xlink:href="#20" y="10.855"/><use xlink:href="#21" y="15.197"/><use xlink:href="#29" y="17.368"/><use xlink:href="#1" y="21.71"/><use xlink:href="#36" y="23.881"/><use xlink:href="#21" y="28.223"/><use xlink:href="#39" y="30.394"/></svg><svg x="8282"><use xlink:href="#a"/><use xlink:href="#b" x="1.996" y="36.882"/><use xlink:href="#1" y="2.171"/><use xlink:href="#7" y="4.342"/><use xlink:href="#8" y="8.684"/><use xlink:href="#20" y="10.855"/><use xlink:href="#21" y="15.197"/><use xlink:href="#29" y="17.368"/><use xlink:href="#1" y="21.71"/><use xlink:href="#36" y="23.881"/><use xlink:href="#21" y="28.223"/><use xlink:href="#39" y="30.394"/><use xlink:href="#8" y="34.736"/><use xlink:href="#2" y="36.907"/></svg><svg x="8383"><use xlink:href="#a"/><use xlink:href="#b" x="1.996" y="36.882"/><use xlink:href="#1" y="2.171"/><use xlink:href="#7" y="4.342"/><use xlink:href="#8" y="8.684"/><use xlink:href="#20" y="10.855"/><use xlink:href="#21" y="15.197"/><use xlink:href="#29" y="17.368"/><use xlink:href="#1" y="21.71"/><use xlink:href="#36" y="23.881"/><use xlink:href="#21" y="28.223"/><use xlink:href="#39" y="30.394"/><use xlink:href="#8" y="34.736"/><use xlink:href="#2" y="36.907"/></svg><svg x="8484"><use xlink:href="#a"/><use xlink:href="#b" x="2.996" y="36.882"/><use xlink:href="#1" y="2.171"/><use xlink:href="#7" y="4.342"/><use xlink:href="#8" y="8.684"/><use xlink:href="#20" y="10.855"/><use xlink:href="#21" y="15.197"/><use xlink:href="#29" y="17.368"/><use xlink:href="#1" y="21.71"/><use xlink:href="#36" y="23.881"/><use xlink:href="#21" y="28.223"/><use xlink:href="#39" y="30.394"/><use xlink:href="#8" y="34.736"/><use xlink:href="#9" y="36.907"/></svg><svg x="8585"><use xlink:href="#a"/><use xlink:href="#b" x="2.996" y="36.882"/><use xlink:href="#1" y="2.171"/><use xlink:href="#7" y="4.342"/><use xlink:href="#8" y="8.684"/><use xlink:href="#20" y="10.855"/><use xlink:href="#21" y="15.197"/><use xlink:href="#29" y="17.368"/><use xlink:href="#1" y="21.71"/><use xlink:href="#36" y="23.881"/><use xlink:href="#21" y="28.223"/><use xlink:href="#39" y="30.394"/><use xlink:href="#8" y="34.736"/><use xlink:href="#9" y="36.907"/></svg><svg x="8686"><use xlink:href="#a"/><use xlink:href="#b" x="3.996" y="36.882"/><use xlink:href="#1" y="2.171"/><use xlink:href="#7" y="4.342"/><use xlink:href="#8" y="8.684"/><use xlink:href="#20" y="10.855"/><use xlink:href="#21" y="15.197"/><use xlink:href="#29" y="17.368"/><use xlink:href="#1" y="21.71"/><use xlink:href="#36" y="23.881"/><use xlink:href="#21" y="28.223"/><use xlink:href="#39" y="30.394"/><use xlink:href="#8" y="34.736"/><use xlink:href="#10" y="36.907"/></svg><svg x="8787"><use xlink:href="#a"/><use xlink:href="#b" x="3.996" y="36.882"/><use xlink:href="#1" y="2.171"/><use xlink:href="#7" y="4.342"/><use xlink:href="#8" y="8.684"/><use xlink:href="#20" y="10.855"/><use xlink:href="#21" y="15.197"/><use xlink:href="#29" y="17.368"/><use xlink:href="#1" y="21.71"/><use xlink:href="#36" y="23.881"/><use xlink:href="#21" y="28.223"/><use xlink:href="#39" y="30.394"/><use xlink:href="#8" y="34.736"/><use xlink:href="#10" y="36.907"/></svg><svg x="8888"><use xlink:href="#a"/><use xlink:href="#b" x="4.996" y="36.882"/><use xlink:href="#1" y="2.171"/><use xlink:href="#7" y="4.342"/><use xlink:href="#8" y="8.684"/><use xlink:href="#20" y="10.855"/><use xlink:href="#21" y="15.197"/><use xlink:href="#29" y="17.368"/><use xlink:href="#1" y="21.71"/><use xlink:href="#36" y="23.881"/><use xlink:href="#21" y="28.223"/><use xlink:href="#39" y="30.394"/><use xlink:href="#8" y="34.736"/><use xlink:href="#10" y="36.907"/></svg><svg x="8989"><use xlink:href="#a"/><use xlink:href="#b" x="4.996" y="36.882"/><use xlink:href="#1" y="2.171"/><use xlink:href="#7" y="4.342"/><use xlink:href="#8" y="8.684"/><use xlink:href="#20" y="10.855"/><use xlink:href="#21" y="15.197"/><use xlink:href="#29" y="17.368"/><use xlink:href="#1" y="21.71"/><use xlink:href="#36" y="23.881"/><use xlink:href="#21" y="28.223"/><use xlink:href="#39" y="30.394"/><use xlink:href="#8" y="34.736"/><use xlink:href="#10" y="36.907"/></svg><svg x="9090"><use xlink:href="#a"/><use xlink:href="#b" x="5.996" y="36.882"/><use xlink:href="#1" y="2.171"/><use xlink:href="#7" y="4.342"/><use xlink:href="#8" y="8.684"/><use xlink:href="#20" y="10.855"/><use xlink:href="#21" y="15.197"/><use xlink:href="#29" y="17.368"/><use xlink:href="#1" y="21.71"/><use xlink:href="#36" y="23.881"/><use xlink:href="#21" y="28.223"/><use xlink:href="#39" y="30.394"/><use xlink:href="#8" y="34.736"/><use xlink:href="#40" y="36.907"/></svg><svg x="9191"><use xlink:href="#a"/><use xlink:href="#b" x="5.996" y="36.882"/><use xlink:href="#1" y="2.171"/><use xlink:href="#7" y="4.342"/><use xlink:href="#8" y="8.684"/><use xlink:href="#20" y="10.855"/><use xlink:href="#21" y="15.197"/><use xlink:href="#29" y="17.368"/><use xlink:href="#1" y="21.71"/><use xlink:href="#36" y="23.881"/><use xlink:href="#21" y="28.223"/><use xlink:href="#39" y="30.394"/><use xlink:href="#8" y="34.736"/><use xlink:href="#40" y="36.907"/></svg><svg x="9292"><use xlink:href="#a"/><use xlink:href="#b" x="6.996" y="36.882"/><use xlink:href="#1" y="2.171"/><use xlink:href="#7" y="4.342"/><use xlink:href="#8" y="8.684"/><use xlink:href="#20" y="10.855"/><use xlink:href="#21" y="15.197"/><use xlink:href="#29" y="17.368"/><use xlink:href="#1" y="21.71"/><use xlink:href="#36" y="23.881"/><use xlink:href="#21" y="28.223"/><use xlink:href="#39" y="30.394"/><use xlink:href="#8" y="34.736"/><use xlink:href="#41" y="36.907"/></svg><svg x="9393"><use xlink:href="#a"/><use xlink:href="#b" x="6.996" y="36.882"/><use xlink:href="#1" y="2.171"/><use xlink:href="#7" y="4.342"/><use xlink:href="#8" y="8.684"/><use xlink:href="#20" y="10.855"/><use xlink:href="#21" y="15.197"/><use xlink:href="#29" y="17.368"/><use xlink:href="#1" y="21.71"/><use xlink:href="#36" y="23.881"/><use xlink:href="#21" y="28.223"/><use xlink:href="#39" y="30.394"/><use xlink:href="#8" y="34.736"/><use xlink:href="#41" y="36.907"/></svg><svg x="9494"><use xlink:href="#a"/><use xlink:href="#b" x="7.996" y="36.882"/><use xlink:href="#1" y="2.171"/><use xlink:href="#7" y="4.342"/><use xlink:href="#8" y="8.684"/><use xlink:href="#20" y="10.855"/><use xlink:href="#21" y="15.197"/><use xlink:href="#29" y="17.368"/><use xlink:href="#1" y="21.71"/><use xlink:href="#36" y="23.881"/><use xlink:href="#21" y="28.223"/><use xlink:href="#39" y="30.394"/><use xlink:href="#8" y="34.736"/><use xlink:href="#42" y="36.907"/></svg><svg x="9595"><use xlink:href="#a"/><use xlink:href="#b" x="7.996" y="36.882"/><use xlink:href="#1" y="2.171"/><use xlink:href="#7" y="4.342"/><use xlink:href="#8" y="8.684"/><use xlink:href="#20" y="10.855"/><use xlink:href="#21" y="15.197"/><use xlink:href="#29" y="17.368"/><use xlink:href="#1" y="21.71"/><use xlink:href="#36" y="23.881"/><use xlink:href="#21" y="28.223"/><use xlink:href="#39" y="30.394"/><use xlink:href="#8" y="34.736"/><use xlink:href="#42" y="36.907"/></svg><svg x="9696"><use xlink:href="#a"/><use xlink:href="#b" x="-.004" y="39.053"/><use xlink:href="#1" y="2.171"/><use xlink:href="#7" y="4.342"/><use xlink:href="#8" y="8.684"/><use xlink:href="#20" y="10.855"/><use xlink:href="#21" y="15.197"/><use xlink:href="#29" y="17.368"/><use xlink:href="#1" y="21.71"/><use xlink:href="#36" y="23.881"/><use xlink:href="#21" y="28.223"/><use xlink:href="#39" y="30.394"/><use xlink:href="#8" y="34.736"/><use xlink:href="#42" y="36.907"/></svg><svg x="9797"><use xlink:href="#a"/><use xlink:href="#b" x="1.996" y="43.395"/><use xlink:href="#1" y="2.171"/><use xlink:href="#7" y="4.342"/><use xlink:href="#8" y="8.684"/><use xlink:href="#20" y="10.855"/><use xlink:href="#21" y="15.197"/><use xlink:href="#29" y="17.368"/><use xlink:href="#1" y="21.71"/><use xlink:href="#36" y="23.881"/><use xlink:href="#21" y="28.223"/><use xlink:href="#39" y="30.394"/><use xlink:href="#8" y="34.736"/><use xlink:href="#42" y="36.907"/><use xlink:href="#43" y="41.249"/><use xlink:href="#2" y="43.42"/></svg><svg x="9898"><use xlink:href="#a"/><use xlink:href="#b" x="1.996" y="43.395"/><use xlink:href="#1" y="2.171"/><use xlink:href="#7" y="4.342"/><use xlink:href="#8" y="8.684"/><use xlink:href="#20" y="10.855"/><use xlink:href="#21" y="15.197"/><use xlink:href="#29" y="17.368"/><use xlink:href="#1" y="21.71"/><use xlink:href="#36" y="23.881"/><use xlink:href="#21" y="28.223"/><use xlink:href="#39" y="30.394"/><use xlink:href="#8" y="34.736"/><use xlink:href="#42" y="36.907"/><use xlink:href="#43" y="41.249"/><use xlink:href="#2" y="43.42"/></svg></svg></g></g></svg></svg>