<svg xmlns="http://www.w3.org/2000/svg" xmlns:xlink="http://www.w3.org/1999/xlink" width="840" height="651.3"><rect width="840" height="651.3" rx="0" ry="0" class="a"/><svg height="651.3" viewBox="0 0 84 65.13" width="840" xmlns="http://www.w3.org/2000/svg" xmlns:xlink="http://www.w3.org/1999/xlink"><style>@keyframes m{0%{transform:translateX(0)}.99%{transform:translateX(-84px)}1.03%{transform:translateX(-168px)}6.6%{transform:translateX(-252px)}10.08%{transform:translateX(-336px)}10.11%{transform:translateX(-420px)}10.6%{transform:translateX(-504px)}10.64%{transform:translateX(-588px)}12.25%{transform:translateX(-672px)}12.29%{transform:translateX(-756px)}12.86%{transform:translateX(-840px)}12.89%{transform:translateX(-924px)}14.07%{transform:translateX(-1008px)}14.1%{transform:translateX(-1092px)}14.45%{transform:translateX(-1176px)}14.48%{transform:translateX(-1260px)}16.87%{transform:translateX(-1344px)}16.91%{transform:translateX(-1428px)}17.4%{transform:translateX(-1512px)}21.61%{transform:translateX(-1596px)}21.64%{transform:translateX(-1680px)}23.14%{transform:translateX(-1764px)}23.18%{transform:translateX(-1848px)}24.06%{transform:translateX(-1932px)}24.09%{transform:translateX(-2016px)}25.28%{transform:translateX(-2100px)}25.31%{transform:translateX(-2184px)}27.85%{transform:translateX(-2268px)}27.88%{transform:translateX(-2352px)}29.27%{transform:translateX(-2436px)}29.31%{transform:translateX(-2520px)}31.26%{transform:translateX(-2604px)}31.3%{transform:translateX(-2688px)}33.61%{transform:translateX(-2772px)}33.64%{transform:translateX(-2856px)}33.91%{transform:translateX(-2940px)}38.62%{transform:translateX(-3024px)}38.65%{transform:translateX(-3108px)}38.88%{transform:translateX(-3192px)}38.91%{transform:translateX(-3276px)}40.47%{transform:translateX(-3360px)}40.5%{transform:translateX(-3444px)}41.09%{transform:translateX(-3528px)}41.12%{transform:translateX(-3612px)}41.89%{transform:translateX(-3696px)}43.68%{transform:translateX(-3780px)}43.71%{transform:translateX(-3864px)}45.94%{transform:translateX(-3948px)}45.97%{transform:translateX(-4032px)}48.08%{transform:translateX(-4116px)}48.12%{transform:translateX(-4200px)}48.33%{transform:translateX(-4284px)}50.41%{transform:translateX(-4368px)}50.44%{transform:translateX(-4452px)}50.68%{transform:translateX(-4536px)}50.72%{transform:translateX(-4620px)}52.38%{transform:translateX(-4704px)}52.41%{transform:translateX(-4788px)}53.03%{transform:translateX(-4872px)}53.06%{transform:translateX(-4956px)}53.84%{transform:translateX(-5040px)}55.39%{transform:translateX(-5124px)}55.43%{transform:translateX(-5208px)}57.96%{transform:translateX(-5292px)}57.99%{transform:translateX(-5376px)}60.29%{transform:translateX(-5460px)}60.33%{transform:translateX(-5544px)}60.5%{transform:translateX(-5628px)}69.52%{transform:translateX(-5712px)}69.55%{transform:translateX(-5796px)}69.73%{transform:translateX(-5880px)}69.76%{transform:translateX(-5964px)}70.9%{transform:translateX(-6048px)}70.93%{transform:translateX(-6132px)}71.42%{transform:translateX(-6216px)}71.45%{transform:translateX(-6300px)}73.08%{transform:translateX(-6384px)}73.11%{transform:translateX(-6468px)}73.83%{transform:translateX(-6552px)}73.87%{transform:translateX(-6636px)}74.28%{transform:translateX(-6720px)}74.31%{transform:translateX(-6804px)}76.85%{transform:translateX(-6888px)}76.88%{transform:translateX(-6972px)}77.1%{transform:translateX(-7056px)}83.54%{transform:translateX(-7140px)}83.58%{transform:translateX(-7224px)}84.37%{transform:translateX(-7308px)}84.4%{transform:translateX(-7392px)}85.03%{transform:translateX(-7476px)}85.07%{transform:translateX(-7560px)}88.94%{transform:translateX(-7644px)}88.98%{transform:translateX(-7728px)}89.31%{transform:translateX(-7812px)}89.34%{transform:translateX(-7896px)}89.88%{transform:translateX(-7980px)}89.91%{transform:translateX(-8064px)}91.25%{transform:translateX(-8148px)}91.28%{transform:translateX(-8232px)}91.49%{transform:translateX(-8316px)}to{transform:translateX(-8400px)}}.a{fill:#282d35}.c,.d,.e,.f{fill:#71bef2;white-space:pre}.d,.e,.f{fill:#d290e4}.e,.f{fill:#dbab79}.f{fill:#b9c0cb}.g{fill:#87ff5f}.h,.i,.j{white-space:pre}.i,.j{fill:#66c2cd}.j{fill:#fff}</style><g font-family="Monaco,Consolas,Menlo,'Bitstream Vera Sans Mono','Powerline Symbols',monospace" font-size="1.67"><defs><symbol id="1"><text y="1.67" class="c">~\projects\PowerShell</text></symbol><symbol id="2"><text y="1.67" class="d">❯</text></symbol><symbol id="3"><text y="1.67" class="d">❯</text><text x="2.004" y="1.67" class="e">c</text></symbol><symbol id="4"><text y="1.67" class="d">❯</text><text x="2.004" y="1.67" class="e">cd</text></symbol><symbol id="5"><text y="1.67" class="d">❯</text><text x="2.004" y="1.67" class="e">cd</text><text x="5.01" y="1.67" class="f">s</text></symbol><symbol id="6"><text y="1.67" class="d">❯</text><text x="2.004" y="1.67" class="e">cd</text><text x="5.01" y="1.67" class="f">sr</text></symbol><symbol id="7"><text y="1.67" class="d">❯</text><text x="2.004" y="1.67" class="e">cd</text><text x="5.01" y="1.67" class="f">src</text></symbol><symbol id="8"><text y="1.67" class="c">~\projects\PowerShell\src</text></symbol><symbol id="9"><text y="1.67" class="d">❯</text><text x="2.004" y="1.67" class="e">u</text></symbol><symbol id="10"><text y="1.67" class="d">❯</text><text x="2.004" y="1.67" class="e">up</text></symbol><symbol id="11"><text y="1.67" class="d">❯</text><text x="2.004" y="1.67" class="e">up</text><path class="g" d="M5.01 0h1v2.171h-1z"/><text x="5.01" y="1.67" class="h">1</text></symbol><symbol id="12"><path class="g" d="M0 0h15v2.171H0z"/><text y="1.67" class="h">1. PowerShell</text><text x="15.03" y="1.67" class="f">2.</text><text x="18.036" y="1.67" class="f">projects</text><text x="30.06" y="1.67" class="f">3.</text><text x="33.066" y="1.67" class="f">Nick</text><text x="45.09" y="1.67" class="f">4.</text><text x="48.096" y="1.67" class="f">Users</text><text x="60.12" y="1.67" class="f">5.</text><text x="63.126" y="1.67" class="f">C:\</text></symbol><symbol id="13"><text y="1.67" class="i">1.</text><text x="3.006" y="1.67" class="i">C:\Users\Nick\projects\PowerShell</text></symbol><symbol id="14"><text y="1.67" class="d">❯</text><text x="2.004" y="1.67" class="e">up</text><path class="g" d="M5.01 0h1v2.171h-1z"/><text x="5.01" y="1.67" class="h">2</text></symbol><symbol id="15"><text y="1.67" class="f">1.</text><text x="3.006" y="1.67" class="f">PowerShell</text><path class="g" d="M15.03 0h15v2.171h-15z"/><text x="15.03" y="1.67" class="h">2. projects</text><text x="30.06" y="1.67" class="f">3.</text><text x="33.066" y="1.67" class="f">Nick</text><text x="45.09" y="1.67" class="f">4.</text><text x="48.096" y="1.67" class="f">Users</text><text x="60.12" y="1.67" class="f">5.</text><text x="63.126" y="1.67" class="f">C:\</text></symbol><symbol id="16"><text y="1.67" class="i">2.</text><text x="3.006" y="1.67" class="i">C:\Users\Nick\projects</text></symbol><symbol id="17"><text y="1.67" class="d">❯</text><text x="2.004" y="1.67" class="e">up</text><path class="g" d="M5.01 0h1v2.171h-1z"/><text x="5.01" y="1.67" class="h">3</text></symbol><symbol id="18"><text y="1.67" class="f">1.</text><text x="3.006" y="1.67" class="f">PowerShell</text><text x="15.03" y="1.67" class="f">2.</text><text x="18.036" y="1.67" class="f">projects</text><path class="g" d="M30.06 0h15v2.171h-15z"/><text x="30.06" y="1.67" class="h">3. Nick</text><text x="45.09" y="1.67" class="f">4.</text><text x="48.096" y="1.67" class="f">Users</text><text x="60.12" y="1.67" class="f">5.</text><text x="63.126" y="1.67" class="f">C:\</text></symbol><symbol id="19"><text y="1.67" class="i">3.</text><text x="3.006" y="1.67" class="i">C:\Users\Nick</text></symbol><symbol id="20"><text y="1.67" class="d">❯</text><text x="2.004" y="1.67" class="e">up</text><text x="5.01" y="1.67" class="j">3</text></symbol><symbol id="21"><text y="1.67" class="c">~</text></symbol><symbol id="22"><text y="1.67" class="d">❯</text><text x="2.004" y="1.67" class="e">cd-</text></symbol><symbol id="23"><text y="1.67" class="d">❯</text><text x="2.004" y="1.67" class="e">cd-</text><path class="g" d="M6.012 0h1v2.171h-1z"/><text x="6.012" y="1.67" class="h">1</text></symbol><symbol id="24"><path class="g" d="M0 0h15v2.171H0z"/><text y="1.67" class="h">1. src</text><text x="15.03" y="1.67" class="f">2.</text><text x="18.036" y="1.67" class="f">PowerShell</text></symbol><symbol id="25"><text y="1.67" class="i">1.</text><text x="3.006" y="1.67" class="i">C:\Users\Nick\projects\PowerShell\src</text></symbol><symbol id="26"><text y="1.67" class="d">❯</text><text x="2.004" y="1.67" class="e">cd-</text><path class="g" d="M6.012 0h1v2.171h-1z"/><text x="6.012" y="1.67" class="h">2</text></symbol><symbol id="27"><text y="1.67" class="f">1.</text><text x="3.006" y="1.67" class="f">src</text><path class="g" d="M15.03 0h15v2.171h-15z"/><text x="15.03" y="1.67" class="h">2. PowerShell</text></symbol><symbol id="28"><text y="1.67" class="i">2.</text><text x="3.006" y="1.67" class="i">C:\Users\Nick\projects\PowerShell</text></symbol><symbol id="29"><text y="1.67" class="d">❯</text><text x="2.004" y="1.67" class="e">cd-</text><text x="6.012" y="1.67" class="j">2</text></symbol><symbol id="30"><text y="1.67" class="d">❯</text><text x="2.004" y="1.67" class="e">cd+</text></symbol><symbol id="31"><text y="1.67" class="d">❯</text><text x="2.004" y="1.67" class="e">cd+</text><path class="g" d="M6.012 0h1v2.171h-1z"/><text x="6.012" y="1.67" class="h">1</text></symbol><symbol id="32"><path class="g" d="M0 0h9v2.171H0z"/><text y="1.67" class="h">1. src</text><text x="9.018" y="1.67" class="f">2.</text><text x="12.024" y="1.67" class="f">Nick</text></symbol><symbol id="33"><text y="1.67" class="d">❯</text><text x="2.004" y="1.67" class="e">cd+</text><path class="g" d="M6.012 0h1v2.171h-1z"/><text x="6.012" y="1.67" class="h">2</text></symbol><symbol id="34"><text y="1.67" class="f">1.</text><text x="3.006" y="1.67" class="f">src</text><path class="g" d="M9.018 0h9v2.171h-9z"/><text x="9.018" y="1.67" class="h">2. Nick</text></symbol><symbol id="35"><text y="1.67" class="i">2.</text><text x="3.006" y="1.67" class="i">C:\Users\Nick</text></symbol><symbol id="36"><text y="1.67" class="d">❯</text><text x="2.004" y="1.67" class="e">cd+</text><text x="6.012" y="1.67" class="j">2</text></symbol><symbol id="37"><text y="1.67" class="d">❯</text><text x="2.004" y="1.67" class="e">cd-</text><text x="6.012" y="1.67" class="f">s</text></symbol><symbol id="38"><text y="1.67" class="d">❯</text><text x="2.004" y="1.67" class="e">cd-</text><text x="6.012" y="1.67" class="f">sr</text></symbol><symbol id="39"><text y="1.67" class="d">❯</text><text x="2.004" y="1.67" class="e">cd-</text><text x="6.012" y="1.67" class="f">src</text></symbol><symbol id="40"><text y="1.67" class="d">❯</text><text x="2.004" y="1.67" class="e">up</text><text x="5.01" y="1.67" class="f">p</text></symbol><symbol id="41"><text y="1.67" class="d">❯</text><text x="2.004" y="1.67" class="e">up</text><text x="5.01" y="1.67" class="f">pr</text></symbol><symbol id="42"><text y="1.67" class="d">❯</text><text x="2.004" y="1.67" class="e">up</text><text x="5.01" y="1.67" class="f">pro</text></symbol><symbol id="43"><text y="1.67" class="c">~\projects</text></symbol><symbol id="a"><path fill="transparent" d="M0 0h84v31H0z"/></symbol><symbol id="b"><path fill="#6f7683" d="M0 0h1.102v2.171H0z"/></symbol></defs><path class="a" d="M0 0h84v65.13H0z"/><g style="animation-duration:24.8506914s;animation-iteration-count:infinite;animation-name:m;animation-timing-function:steps(1,end)"><svg width="8484"><svg><use xlink:href="#a"/><use xlink:href="#b" x="-.004"/></svg><svg x="84"><use xlink:href="#a"/><use xlink:href="#b" x="-.004"/></svg><svg x="168"><use xlink:href="#a"/><use xlink:href="#b" x="-.004"/></svg><svg x="252"><use xlink:href="#a"/><use xlink:href="#b" x="1.996" y="4.317"/><use xlink:href="#1" y="2.171"/><use xlink:href="#2" y="4.342"/></svg><svg x="336"><use xlink:href="#a"/><use xlink:href="#b" x="1.996" y="4.317"/><use xlink:href="#1" y="2.171"/><use xlink:href="#2" y="4.342"/></svg><svg x="420"><use xlink:href="#a"/><use xlink:href="#b" x="2.996" y="4.317"/><use xlink:href="#1" y="2.171"/><use xlink:href="#3" y="4.342"/></svg><svg x="504"><use xlink:href="#a"/><use xlink:href="#b" x="2.996" y="4.317"/><use xlink:href="#1" y="2.171"/><use xlink:href="#3" y="4.342"/></svg><svg x="588"><use xlink:href="#a"/><use xlink:href="#b" x="3.996" y="4.317"/><use xlink:href="#1" y="2.171"/><use xlink:href="#4" y="4.342"/></svg><svg x="672"><use xlink:href="#a"/><use xlink:href="#b" x="3.996" y="4.317"/><use xlink:href="#1" y="2.171"/><use xlink:href="#4" y="4.342"/></svg><svg x="756"><use xlink:href="#a"/><use xlink:href="#b" x="4.996" y="4.317"/><use xlink:href="#1" y="2.171"/><use xlink:href="#4" y="4.342"/></svg><svg x="840"><use xlink:href="#a"/><use xlink:href="#b" x="4.996" y="4.317"/><use xlink:href="#1" y="2.171"/><use xlink:href="#4" y="4.342"/></svg><svg x="924"><use xlink:href="#a"/><use xlink:href="#b" x="5.996" y="4.317"/><use xlink:href="#1" y="2.171"/><use xlink:href="#5" y="4.342"/></svg><svg x="1008"><use xlink:href="#a"/><use xlink:href="#b" x="5.996" y="4.317"/><use xlink:href="#1" y="2.171"/><use xlink:href="#5" y="4.342"/></svg><svg x="1092"><use xlink:href="#a"/><use xlink:href="#b" x="6.996" y="4.317"/><use xlink:href="#1" y="2.171"/><use xlink:href="#6" y="4.342"/></svg><svg x="1176"><use xlink:href="#a"/><use xlink:href="#b" x="6.996" y="4.317"/><use xlink:href="#1" y="2.171"/><use xlink:href="#6" y="4.342"/></svg><svg x="1260"><use xlink:href="#a"/><use xlink:href="#b" x="7.996" y="4.317"/><use xlink:href="#1" y="2.171"/><use xlink:href="#7" y="4.342"/></svg><svg x="1344"><use xlink:href="#a"/><use xlink:href="#b" x="7.996" y="4.317"/><use xlink:href="#1" y="2.171"/><use xlink:href="#7" y="4.342"/></svg><svg x="1428"><use xlink:href="#a"/><use xlink:href="#b" x="-.004" y="6.488"/><use xlink:href="#1" y="2.171"/><use xlink:href="#7" y="4.342"/></svg><svg x="1512"><use xlink:href="#a"/><use xlink:href="#b" x="1.996" y="10.83"/><use xlink:href="#1" y="2.171"/><use xlink:href="#7" y="4.342"/><use xlink:href="#8" y="8.684"/><use xlink:href="#2" y="10.855"/></svg><svg x="1596"><use xlink:href="#a"/><use xlink:href="#b" x="1.996" y="10.83"/><use xlink:href="#1" y="2.171"/><use xlink:href="#7" y="4.342"/><use xlink:href="#8" y="8.684"/><use xlink:href="#2" y="10.855"/></svg><svg x="1680"><use xlink:href="#a"/><use xlink:href="#b" x="2.996" y="10.83"/><use xlink:href="#1" y="2.171"/><use xlink:href="#7" y="4.342"/><use xlink:href="#8" y="8.684"/><use xlink:href="#9" y="10.855"/></svg><svg x="1764"><use xlink:href="#a"/><use xlink:href="#b" x="2.996" y="10.83"/><use xlink:href="#1" y="2.171"/><use xlink:href="#7" y="4.342"/><use xlink:href="#8" y="8.684"/><use xlink:href="#9" y="10.855"/></svg><svg x="1848"><use xlink:href="#a"/><use xlink:href="#b" x="3.996" y="10.83"/><use xlink:href="#1" y="2.171"/><use xlink:href="#7" y="4.342"/><use xlink:href="#8" y="8.684"/><use xlink:href="#10" y="10.855"/></svg><svg x="1932"><use xlink:href="#a"/><use xlink:href="#b" x="3.996" y="10.83"/><use xlink:href="#1" y="2.171"/><use xlink:href="#7" y="4.342"/><use xlink:href="#8" y="8.684"/><use xlink:href="#10" y="10.855"/></svg><svg x="2016"><use xlink:href="#a"/><use xlink:href="#b" x="4.996" y="10.83"/><use xlink:href="#1" y="2.171"/><use xlink:href="#7" y="4.342"/><use xlink:href="#8" y="8.684"/><use xlink:href="#10" y="10.855"/></svg><svg x="2100"><use xlink:href="#a"/><use xlink:href="#b" x="82.996" y="13.001"/><use xlink:href="#1" y="2.171"/><use xlink:href="#7" y="4.342"/><use xlink:href="#8" y="8.684"/><use xlink:href="#10" y="10.855"/><text y="14.696" class="f">1.</text><text x="3.006" y="14.696" class="f">PowerShell</text><text x="15.03" y="14.696" class="f">2.</text><text x="18.036" y="14.696" class="f">projects</text><text x="30.06" y="14.696" class="f">3.</text><text x="33.066" y="14.696" class="f">Nick</text><text x="45.09" y="14.696" class="f">4.</text><text x="48.096" y="14.696" class="f">Users</text><text x="60.12" y="14.696" class="f">5.</text><text x="63.126" y="14.696" class="f">C:\</text></svg><svg x="2184"><use xlink:href="#a"/><use xlink:href="#b" x="4.996" y="10.83"/><use xlink:href="#1" y="2.171"/><use xlink:href="#7" y="4.342"/><use xlink:href="#8" y="8.684"/><use xlink:href="#11" y="10.855"/><use xlink:href="#12" y="13.026"/><use xlink:href="#13" y="17.368"/></svg><svg x="2268"><use xlink:href="#a"/><use xlink:href="#b" x="4.996" y="10.83"/><use xlink:href="#1" y="2.171"/><use xlink:href="#7" y="4.342"/><use xlink:href="#8" y="8.684"/><use xlink:href="#11" y="10.855"/><use xlink:href="#12" y="13.026"/><use xlink:href="#13" y="17.368"/></svg><svg x="2352"><use xlink:href="#a"/><use xlink:href="#b" x="4.996" y="10.83"/><use xlink:href="#1" y="2.171"/><use xlink:href="#7" y="4.342"/><use xlink:href="#8" y="8.684"/><use xlink:href="#14" y="10.855"/><use xlink:href="#15" y="13.026"/><use xlink:href="#16" y="17.368"/></svg><svg x="2436"><use xlink:href="#a"/><use xlink:href="#b" x="4.996" y="10.83"/><use xlink:href="#1" y="2.171"/><use xlink:href="#7" y="4.342"/><use xlink:href="#8" y="8.684"/><use xlink:href="#14" y="10.855"/><use xlink:href="#15" y="13.026"/><use xlink:href="#16" y="17.368"/></svg><svg x="2520"><use xlink:href="#a"/><use xlink:href="#b" x="4.996" y="10.83"/><use xlink:href="#1" y="2.171"/><use xlink:href="#7" y="4.342"/><use xlink:href="#8" y="8.684"/><use xlink:href="#17" y="10.855"/><use xlink:href="#18" y="13.026"/><use xlink:href="#19" y="17.368"/></svg><svg x="2604"><use xlink:href="#a"/><use xlink:href="#b" x="5.996" y="10.83"/><use xlink:href="#1" y="2.171"/><use xlink:href="#7" y="4.342"/><use xlink:href="#8" y="8.684"/><use xlink:href="#17" y="10.855"/><use xlink:href="#18" y="13.026"/><use xlink:href="#19" y="17.368"/></svg><svg x="2688"><use xlink:href="#a"/><use xlink:href="#b" x="5.996" y="10.83"/><use xlink:href="#1" y="2.171"/><use xlink:href="#7" y="4.342"/><use xlink:href="#8" y="8.684"/><use xlink:href="#20" y="10.855"/></svg><svg x="2772"><use xlink:href="#a"/><use xlink:href="#b" x="5.996" y="10.83"/><use xlink:href="#1" y="2.171"/><use xlink:href="#7" y="4.342"/><use xlink:href="#8" y="8.684"/><use xlink:href="#20" y="10.855"/></svg><svg x="2856"><use xlink:href="#a"/><use xlink:href="#b" x="-.004" y="13.001"/><use xlink:href="#1" y="2.171"/><use xlink:href="#7" y="4.342"/><use xlink:href="#8" y="8.684"/><use xlink:href="#20" y="10.855"/></svg><svg x="2940"><use xlink:href="#a"/><use xlink:href="#b" x="1.996" y="17.343"/><use xlink:href="#1" y="2.171"/><use xlink:href="#7" y="4.342"/><use xlink:href="#8" y="8.684"/><use xlink:href="#20" y="10.855"/><use xlink:href="#21" y="15.197"/><use xlink:href="#2" y="17.368"/></svg><svg x="3024"><use xlink:href="#a"/><use xlink:href="#b" x="1.996" y="17.343"/><use xlink:href="#1" y="2.171"/><use xlink:href="#7" y="4.342"/><use xlink:href="#8" y="8.684"/><use xlink:href="#20" y="10.855"/><use xlink:href="#21" y="15.197"/><use xlink:href="#2" y="17.368"/></svg><svg x="3108"><use xlink:href="#a"/><use xlink:href="#b" x="2.996" y="17.343"/><use xlink:href="#1" y="2.171"/><use xlink:href="#7" y="4.342"/><use xlink:href="#8" y="8.684"/><use xlink:href="#20" y="10.855"/><use xlink:href="#21" y="15.197"/><use xlink:href="#3" y="17.368"/></svg><svg x="3192"><use xlink:href="#a"/><use xlink:href="#b" x="2.996" y="17.343"/><use xlink:href="#1" y="2.171"/><use xlink:href="#7" y="4.342"/><use xlink:href="#8" y="8.684"/><use xlink:href="#20" y="10.855"/><use xlink:href="#21" y="15.197"/><use xlink:href="#3" y="17.368"/></svg><svg x="3276"><use xlink:href="#a"/><use xlink:href="#b" x="3.996" y="17.343"/><use xlink:href="#1" y="2.171"/><use xlink:href="#7" y="4.342"/><use xlink:href="#8" y="8.684"/><use xlink:href="#20" y="10.855"/><use xlink:href="#21" y="15.197"/><use xlink:href="#4" y="17.368"/></svg><svg x="3360"><use xlink:href="#a"/><use xlink:href="#b" x="3.996" y="17.343"/><use xlink:href="#1" y="2.171"/><use xlink:href="#7" y="4.342"/><use xlink:href="#8" y="8.684"/><use xlink:href="#20" y="10.855"/><use xlink:href="#21" y="15.197"/><use xlink:href="#4" y="17.368"/></svg><svg x="3444"><use xlink:href="#a"/><use xlink:href="#b" x="4.996" y="17.343"/><use xlink:href="#1" y="2.171"/><use xlink:href="#7" y="4.342"/><use xlink:href="#8" y="8.684"/><use xlink:href="#20" y="10.855"/><use xlink:href="#21" y="15.197"/><use xlink:href="#22" y="17.368"/></svg><svg x="3528"><use xlink:href="#a"/><use xlink:href="#b" x="4.996" y="17.343"/><use xlink:href="#1" y="2.171"/><use xlink:href="#7" y="4.342"/><use xlink:href="#8" y="8.684"/><use xlink:href="#20" y="10.855"/><use xlink:href="#21" y="15.197"/><use xlink:href="#22" y="17.368"/></svg><svg x="3612"><use xlink:href="#a"/><use xlink:href="#b" x="5.996" y="17.343"/><use xlink:href="#1" y="2.171"/><use xlink:href="#7" y="4.342"/><use xlink:href="#8" y="8.684"/><use xlink:href="#20" y="10.855"/><use xlink:href="#21" y="15.197"/><use xlink:href="#22" y="17.368"/></svg><svg x="3696"><use xlink:href="#a"/><use xlink:href="#b" x="5.996" y="17.343"/><use xlink:href="#1" y="2.171"/><use xlink:href="#7" y="4.342"/><use xlink:href="#8" y="8.684"/><use xlink:href="#20" y="10.855"/><use xlink:href="#21" y="15.197"/><use xlink:href="#23" y="17.368"/><use xlink:href="#24" y="19.539"/><use xlink:href="#25" y="23.881"/></svg><svg x="3780"><use xlink:href="#a"/><use xlink:href="#b" x="5.996" y="17.343"/><use xlink:href="#1" y="2.171"/><use xlink:href="#7" y="4.342"/><use xlink:href="#8" y="8.684"/><use xlink:href="#20" y="10.855"/><use xlink:href="#21" y="15.197"/><use xlink:href="#23" y="17.368"/><use xlink:href="#24" y="19.539"/><use xlink:href="#25" y="23.881"/></svg><svg x="3864"><use xlink:href="#a"/><use xlink:href="#b" x="5.996" y="17.343"/><use xlink:href="#1" y="2.171"/><use xlink:href="#7" y="4.342"/><use xlink:href="#8" y="8.684"/><use xlink:href="#20" y="10.855"/><use xlink:href="#21" y="15.197"/><use xlink:href="#26" y="17.368"/><use xlink:href="#27" y="19.539"/><use xlink:href="#28" y="23.881"/></svg><svg x="3948"><use xlink:href="#a"/><use xlink:href="#b" x="6.996" y="17.343"/><use xlink:href="#1" y="2.171"/><use xlink:href="#7" y="4.342"/><use xlink:href="#8" y="8.684"/><use xlink:href="#20" y="10.855"/><use xlink:href="#21" y="15.197"/><use xlink:href="#26" y="17.368"/><use xlink:href="#27" y="19.539"/><use xlink:href="#28" y="23.881"/></svg><svg x="4032"><use xlink:href="#a"/><use xlink:href="#b" x="6.996" y="17.343"/><use xlink:href="#1" y="2.171"/><use xlink:href="#7" y="4.342"/><use xlink:href="#8" y="8.684"/><use xlink:href="#20" y="10.855"/><use xlink:href="#21" y="15.197"/><use xlink:href="#29" y="17.368"/></svg><svg x="4116"><use xlink:href="#a"/><use xlink:href="#b" x="6.996" y="17.343"/><use xlink:href="#1" y="2.171"/><use xlink:href="#7" y="4.342"/><use xlink:href="#8" y="8.684"/><use xlink:href="#20" y="10.855"/><use xlink:href="#21" y="15.197"/><use xlink:href="#29" y="17.368"/></svg><svg x="4200"><use xlink:href="#a"/><use xlink:href="#b" x="-.004" y="19.514"/><use xlink:href="#1" y="2.171"/><use xlink:href="#7" y="4.342"/><use xlink:href="#8" y="8.684"/><use xlink:href="#20" y="10.855"/><use xlink:href="#21" y="15.197"/><use xlink:href="#29" y="17.368"/></svg><svg x="4284"><use xlink:href="#a"/><use xlink:href="#b" x="1.996" y="23.856"/><use xlink:href="#1" y="2.171"/><use xlink:href="#7" y="4.342"/><use xlink:href="#8" y="8.684"/><use xlink:href="#20" y="10.855"/><use xlink:href="#21" y="15.197"/><use xlink:href="#29" y="17.368"/><use xlink:href="#1" y="21.71"/><use xlink:href="#2" y="23.881"/></svg><svg x="4368"><use xlink:href="#a"/><use xlink:href="#b" x="1.996" y="23.856"/><use xlink:href="#1" y="2.171"/><use xlink:href="#7" y="4.342"/><use xlink:href="#8" y="8.684"/><use xlink:href="#20" y="10.855"/><use xlink:href="#21" y="15.197"/><use xlink:href="#29" y="17.368"/><use xlink:href="#1" y="21.71"/><use xlink:href="#2" y="23.881"/></svg><svg x="4452"><use xlink:href="#a"/><use xlink:href="#b" x="2.996" y="23.856"/><use xlink:href="#1" y="2.171"/><use xlink:href="#7" y="4.342"/><use xlink:href="#8" y="8.684"/><use xlink:href="#20" y="10.855"/><use xlink:href="#21" y="15.197"/><use xlink:href="#29" y="17.368"/><use xlink:href="#1" y="21.71"/><use xlink:href="#3" y="23.881"/></svg><svg x="4536"><use xlink:href="#a"/><use xlink:href="#b" x="2.996" y="23.856"/><use xlink:href="#1" y="2.171"/><use xlink:href="#7" y="4.342"/><use xlink:href="#8" y="8.684"/><use xlink:href="#20" y="10.855"/><use xlink:href="#21" y="15.197"/><use xlink:href="#29" y="17.368"/><use xlink:href="#1" y="21.71"/><use xlink:href="#3" y="23.881"/></svg><svg x="4620"><use xlink:href="#a"/><use xlink:href="#b" x="3.996" y="23.856"/><use xlink:href="#1" y="2.171"/><use xlink:href="#7" y="4.342"/><use xlink:href="#8" y="8.684"/><use xlink:href="#20" y="10.855"/><use xlink:href="#21" y="15.197"/><use xlink:href="#29" y="17.368"/><use xlink:href="#1" y="21.71"/><use xlink:href="#4" y="23.881"/></svg><svg x="4704"><use xlink:href="#a"/><use xlink:href="#b" x="3.996" y="23.856"/><use xlink:href="#1" y="2.171"/><use xlink:href="#7" y="4.342"/><use xlink:href="#8" y="8.684"/><use xlink:href="#20" y="10.855"/><use xlink:href="#21" y="15.197"/><use xlink:href="#29" y="17.368"/><use xlink:href="#1" y="21.71"/><use xlink:href="#4" y="23.881"/></svg><svg x="4788"><use xlink:href="#a"/><use xlink:href="#b" x="4.996" y="23.856"/><use xlink:href="#1" y="2.171"/><use xlink:href="#7" y="4.342"/><use xlink:href="#8" y="8.684"/><use xlink:href="#20" y="10.855"/><use xlink:href="#21" y="15.197"/><use xlink:href="#29" y="17.368"/><use xlink:href="#1" y="21.71"/><use xlink:href="#30" y="23.881"/></svg><svg x="4872"><use xlink:href="#a"/><use xlink:href="#b" x="4.996" y="23.856"/><use xlink:href="#1" y="2.171"/><use xlink:href="#7" y="4.342"/><use xlink:href="#8" y="8.684"/><use xlink:href="#20" y="10.855"/><use xlink:href="#21" y="15.197"/><use xlink:href="#29" y="17.368"/><use xlink:href="#1" y="21.71"/><use xlink:href="#30" y="23.881"/></svg><svg x="4956"><use xlink:href="#a"/><use xlink:href="#b" x="5.996" y="23.856"/><use xlink:href="#1" y="2.171"/><use xlink:href="#7" y="4.342"/><use xlink:href="#8" y="8.684"/><use xlink:href="#20" y="10.855"/><use xlink:href="#21" y="15.197"/><use xlink:href="#29" y="17.368"/><use xlink:href="#1" y="21.71"/><use xlink:href="#30" y="23.881"/></svg><svg x="5040"><use xlink:href="#a"/><use xlink:href="#b" x="5.996" y="23.856"/><use xlink:href="#1" y="2.171"/><use xlink:href="#7" y="4.342"/><use xlink:href="#8" y="8.684"/><use xlink:href="#20" y="10.855"/><use xlink:href="#21" y="15.197"/><use xlink:href="#29" y="17.368"/><use xlink:href="#1" y="21.71"/><use xlink:href="#31" y="23.881"/><use xlink:href="#32" y="26.052"/><use xlink:href="#25" y="30.394"/></svg><svg x="5124"><use xlink:href="#a"/><use xlink:href="#b" x="5.996" y="23.856"/><use xlink:href="#1" y="2.171"/><use xlink:href="#7" y="4.342"/><use xlink:href="#8" y="8.684"/><use xlink:href="#20" y="10.855"/><use xlink:href="#21" y="15.197"/><use xlink:href="#29" y="17.368"/><use xlink:href="#1" y="21.71"/><use xlink:href="#31" y="23.881"/><use xlink:href="#32" y="26.052"/><use xlink:href="#25" y="30.394"/></svg><svg x="5208"><use xlink:href="#a"/><use xlink:href="#b" x="5.996" y="23.856"/><use xlink:href="#1" y="2.171"/><use xlink:href="#7" y="4.342"/><use xlink:href="#8" y="8.684"/><use xlink:href="#20" y="10.855"/><use xlink:href="#21" y="15.197"/><use xlink:href="#29" y="17.368"/><use xlink:href="#1" y="21.71"/><use xlink:href="#33" y="23.881"/><use xlink:href="#34" y="26.052"/><use xlink:href="#35" y="30.394"/></svg><svg x="5292"><use xlink:href="#a"/><use xlink:href="#b" x="6.996" y="23.856"/><use xlink:href="#1" y="2.171"/><use xlink:href="#7" y="4.342"/><use xlink:href="#8" y="8.684"/><use xlink:href="#20" y="10.855"/><use xlink:href="#21" y="15.197"/><use xlink:href="#29" y="17.368"/><use xlink:href="#1" y="21.71"/><use xlink:href="#33" y="23.881"/><use xlink:href="#34" y="26.052"/><use xlink:href="#35" y="30.394"/></svg><svg x="5376"><use xlink:href="#a"/><use xlink:href="#b" x="6.996" y="23.856"/><use xlink:href="#1" y="2.171"/><use xlink:href="#7" y="4.342"/><use xlink:href="#8" y="8.684"/><use xlink:href="#20" y="10.855"/><use xlink:href="#21" y="15.197"/><use xlink:href="#29" y="17.368"/><use xlink:href="#1" y="21.71"/><use xlink:href="#36" y="23.881"/></svg><svg x="5460"><use xlink:href="#a"/><use xlink:href="#b" x="6.996" y="23.856"/><use xlink:href="#1" y="2.171"/><use xlink:href="#7" y="4.342"/><use xlink:href="#8" y="8.684"/><use xlink:href="#20" y="10.855"/><use xlink:href="#21" y="15.197"/><use xlink:href="#29" y="17.368"/><use xlink:href="#1" y="21.71"/><use xlink:href="#36" y="23.881"/></svg><svg x="5544"><use xlink:href="#a"/><use xlink:href="#b" x="-.004" y="26.027"/><use xlink:href="#1" y="2.171"/><use xlink:href="#7" y="4.342"/><use xlink:href="#8" y="8.684"/><use xlink:href="#20" y="10.855"/><use xlink:href="#21" y="15.197"/><use xlink:href="#29" y="17.368"/><use xlink:href="#1" y="21.71"/><use xlink:href="#36" y="23.881"/></svg><svg x="5628"><use xlink:href="#a"/><use xlink:href="#b" x="1.996" y="30.369"/><use xlink:href="#1" y="2.171"/><use xlink:href="#7" y="4.342"/><use xlink:href="#8" y="8.684"/><use xlink:href="#20" y="10.855"/><use xlink:href="#21" y="15.197"/><use xlink:href="#29" y="17.368"/><use xlink:href="#1" y="21.71"/><use xlink:href="#36" y="23.881"/><use xlink:href="#21" y="28.223"/><use xlink:href="#2" y="30.394"/></svg><svg x="5712"><use xlink:href="#a"/><use xlink:href="#b" x="1.996" y="30.369"/><use xlink:href="#1" y="2.171"/><use xlink:href="#7" y="4.342"/><use xlink:href="#8" y="8.684"/><use xlink:href="#20" y="10.855"/><use xlink:href="#21" y="15.197"/><use xlink:href="#29" y="17.368"/><use xlink:href="#1" y="21.71"/><use xlink:href="#36" y="23.881"/><use xlink:href="#21" y="28.223"/><use xlink:href="#2" y="30.394"/></svg><svg x="5796"><use xlink:href="#a"/><use xlink:href="#b" x="2.996" y="30.369"/><use xlink:href="#1" y="2.171"/><use xlink:href="#7" y="4.342"/><use xlink:href="#8" y="8.684"/><use xlink:href="#20" y="10.855"/><use xlink:href="#21" y="15.197"/><use xlink:href="#29" y="17.368"/><use xlink:href="#1" y="21.71"/><use xlink:href="#36" y="23.881"/><use xlink:href="#21" y="28.223"/><use xlink:href="#3" y="30.394"/></svg><svg x="5880"><use xlink:href="#a"/><use xlink:href="#b" x="2.996" y="30.369"/><use xlink:href="#1" y="2.171"/><use xlink:href="#7" y="4.342"/><use xlink:href="#8" y="8.684"/><use xlink:href="#20" y="10.855"/><use xlink:href="#21" y="15.197"/><use xlink:href="#29" y="17.368"/><use xlink:href="#1" y="21.71"/><use xlink:href="#36" y="23.881"/><use xlink:href="#21" y="28.223"/><use xlink:href="#3" y="30.394"/></svg><svg x="5964"><use xlink:href="#a"/><use xlink:href="#b" x="3.996" y="30.369"/><use xlink:href="#1" y="2.171"/><use xlink:href="#7" y="4.342"/><use xlink:href="#8" y="8.684"/><use xlink:href="#20" y="10.855"/><use xlink:href="#21" y="15.197"/><use xlink:href="#29" y="17.368"/><use xlink:href="#1" y="21.71"/><use xlink:href="#36" y="23.881"/><use xlink:href="#21" y="28.223"/><use xlink:href="#4" y="30.394"/></svg><svg x="6048"><use xlink:href="#a"/><use xlink:href="#b" x="3.996" y="30.369"/><use xlink:href="#1" y="2.171"/><use xlink:href="#7" y="4.342"/><use xlink:href="#8" y="8.684"/><use xlink:href="#20" y="10.855"/><use xlink:href="#21" y="15.197"/><use xlink:href="#29" y="17.368"/><use xlink:href="#1" y="21.71"/><use xlink:href="#36" y="23.881"/><use xlink:href="#21" y="28.223"/><use xlink:href="#4" y="30.394"/></svg><svg x="6132"><use xlink:href="#a"/><use xlink:href="#b" x="4.996" y="30.369"/><use xlink:href="#1" y="2.171"/><use xlink:href="#7" y="4.342"/><use xlink:href="#8" y="8.684"/><use xlink:href="#20" y="10.855"/><use xlink:href="#21" y="15.197"/><use xlink:href="#29" y="17.368"/><use xlink:href="#1" y="21.71"/><use xlink:href="#36" y="23.881"/><use xlink:href="#21" y="28.223"/><use xlink:href="#22" y="30.394"/></svg><svg x="6216"><use xlink:href="#a"/><use xlink:href="#b" x="4.996" y="30.369"/><use xlink:href="#1" y="2.171"/><use xlink:href="#7" y="4.342"/><use xlink:href="#8" y="8.684"/><use xlink:href="#20" y="10.855"/><use xlink:href="#21" y="15.197"/><use xlink:href="#29" y="17.368"/><use xlink:href="#1" y="21.71"/><use xlink:href="#36" y="23.881"/><use xlink:href="#21" y="28.223"/><use xlink:href="#22" y="30.394"/></svg><svg x="6300"><use xlink:href="#a"/><use xlink:href="#b" x="5.996" y="30.369"/><use xlink:href="#1" y="2.171"/><use xlink:href="#7" y="4.342"/><use xlink:href="#8" y="8.684"/><use xlink:href="#20" y="10.855"/><use xlink:href="#21" y="15.197"/><use xlink:href="#29" y="17.368"/><use xlink:href="#1" y="21.71"/><use xlink:href="#36" y="23.881"/><use xlink:href="#21" y="28.223"/><use xlink:href="#22" y="30.394"/></svg><svg x="6384"><use xlink:href="#a"/><use xlink:href="#b" x="5.996" y="30.369"/><use xlink:href="#1" y="2.171"/><use xlink:href="#7" y="4.342"/><use xlink:href="#8" y="8.684"/><use xlink:href="#20" y="10.855"/><use xlink:href="#21" y="15.197"/><use xlink:href="#29" y="17.368"/><use xlink:href="#1" y="21.71"/><use xlink:href="#36" y="23.881"/><use xlink:href="#21" y="28.223"/><use xlink:href="#22" y="30.394"/></svg><svg x="6468"><use xlink:href="#a"/><use xlink:href="#b" x="6.996" y="30.369"/><use xlink:href="#1" y="2.171"/><use xlink:href="#7" y="4.342"/><use xlink:href="#8" y="8.684"/><use xlink:href="#20" y="10.855"/><use xlink:href="#21" y="15.197"/><use xlink:href="#29" y="17.368"/><use xlink:href="#1" y="21.71"/><use xlink:href="#36" y="23.881"/><use xlink:href="#21" y="28.223"/><use xlink:href="#37" y="30.394"/></svg><svg x="6552"><use xlink:href="#a"/><use xlink:href="#b" x="6.996" y="30.369"/><use xlink:href="#1" y="2.171"/><use xlink:href="#7" y="4.342"/><use xlink:href="#8" y="8.684"/><use xlink:href="#20" y="10.855"/><use xlink:href="#21" y="15.197"/><use xlink:href="#29" y="17.368"/><use xlink:href="#1" y="21.71"/><use xlink:href="#36" y="23.881"/><use xlink:href="#21" y="28.223"/><use xlink:href="#37" y="30.394"/></svg><svg x="6636"><use xlink:href="#a"/><use xlink:href="#b" x="7.996" y="30.369"/><use xlink:href="#1" y="2.171"/><use xlink:href="#7" y="4.342"/><use xlink:href="#8" y="8.684"/><use xlink:href="#20" y="10.855"/><use xlink:href="#21" y="15.197"/><use xlink:href="#29" y="17.368"/><use xlink:href="#1" y="21.71"/><use xlink:href="#36" y="23.881"/><use xlink:href="#21" y="28.223"/><use xlink:href="#38" y="30.394"/></svg><svg x="6720"><use xlink:href="#a"/><use xlink:href="#b" x="7.996" y="30.369"/><use xlink:href="#1" y="2.171"/><use xlink:href="#7" y="4.342"/><use xlink:href="#8" y="8.684"/><use xlink:href="#20" y="10.855"/><use xlink:href="#21" y="15.197"/><use xlink:href="#29" y="17.368"/><use xlink:href="#1" y="21.71"/><use xlink:href="#36" y="23.881"/><use xlink:href="#21" y="28.223"/><use xlink:href="#38" y="30.394"/></svg><svg x="6804"><use xlink:href="#a"/><use xlink:href="#b" x="8.996" y="30.369"/><use xlink:href="#1" y="2.171"/><use xlink:href="#7" y="4.342"/><use xlink:href="#8" y="8.684"/><use xlink:href="#20" y="10.855"/><use xlink:href="#21" y="15.197"/><use xlink:href="#29" y="17.368"/><use xlink:href="#1" y="21.71"/><use xlink:href="#36" y="23.881"/><use xlink:href="#21" y="28.223"/><use xlink:href="#39" y="30.394"/></svg><svg x="6888"><use xlink:href="#a"/><use xlink:href="#b" x="8.996" y="30.369"/><use xlink:href="#1" y="2.171"/><use xlink:href="#7" y="4.342"/><use xlink:href="#8" y="8.684"/><use xlink:href="#20" y="10.855"/><use xlink:href="#21" y="15.197"/><use xlink:href="#29" y="17.368"/><use xlink:href="#1" y="21.71"/><use xlink:href="#36" y="23.881"/><use xlink:href="#21" y="28.223"/><use xlink:href="#39" y="30.394"/></svg><svg x="6972"><use xlink:href="#a"/><use xlink:href="#b" x="-.004" y="32.54"/><use xlink:href="#1" y="2.171"/><use xlink:href="#7" y="4.342"/><use xlink:href="#8" y="8.684"/><use xlink:href="#20" y="10.855"/><use xlink:href="#21" y="15.197"/><use xlink:href="#29" y="17.368"/><use xlink:href="#1" y="21.71"/><use xlink:href="#36" y="23.881"/><use xlink:href="#21" y="28.223"/><use xlink:href="#39" y="30.394"/></svg><svg x="7056"><use xlink:href="#a"/><use xlink:href="#b" x="1.996" y="36.882"/><use xlink:href="#1" y="2.171"/><use xlink:href="#7" y="4.342"/><use xlink:href="#8" y="8.684"/><use xlink:href="#20" y="10.855"/><use xlink:href="#21" y="15.197"/><use xlink:href="#29" y="17.368"/><use xlink:href="#1" y="21.71"/><use xlink:href="#36" y="23.881"/><use xlink:href="#21" y="28.223"/><use xlink:href="#39" y="30.394"/><use xlink:href="#8" y="34.736"/><use xlink:href="#2" y="36.907"/></svg><svg x="7140"><use xlink:href="#a"/><use xlink:href="#b" x="1.996" y="36.882"/><use xlink:href="#1" y="2.171"/><use xlink:href="#7" y="4.342"/><use xlink:href="#8" y="8.684"/><use xlink:href="#20" y="10.855"/><use xlink:href="#21" y="15.197"/><use xlink:href="#29" y="17.368"/><use xlink:href="#1" y="21.71"/><use xlink:href="#36" y="23.881"/><use xlink:href="#21" y="28.223"/><use xlink:href="#39" y="30.394"/><use xlink:href="#8" y="34.736"/><use xlink:href="#2" y="36.907"/></svg><svg x="7224"><use xlink:href="#a"/><use xlink:href="#b" x="2.996" y="36.882"/><use xlink:href="#1" y="2.171"/><use xlink:href="#7" y="4.342"/><use xlink:href="#8" y="8.684"/><use xlink:href="#20" y="10.855"/><use xlink:href="#21" y="15.197"/><use xlink:href="#29" y="17.368"/><use xlink:href="#1" y="21.71"/><use xlink:href="#36" y="23.881"/><use xlink:href="#21" y="28.223"/><use xlink:href="#39" y="30.394"/><use xlink:href="#8" y="34.736"/><use xlink:href="#9" y="36.907"/></svg><svg x="7308"><use xlink:href="#a"/><use xlink:href="#b" x="2.996" y="36.882"/><use xlink:href="#1" y="2.171"/><use xlink:href="#7" y="4.342"/><use xlink:href="#8" y="8.684"/><use xlink:href="#20" y="10.855"/><use xlink:href="#21" y="15.197"/><use xlink:href="#29" y="17.368"/><use xlink:href="#1" y="21.71"/><use xlink:href="#36" y="23.881"/><use xlink:href="#21" y="28.223"/><use xlink:href="#39" y="30.394"/><use xlink:href="#8" y="34.736"/><use xlink:href="#9" y="36.907"/></svg><svg x="7392"><use xlink:href="#a"/><use xlink:href="#b" x="3.996" y="36.882"/><use xlink:href="#1" y="2.171"/><use xlink:href="#7" y="4.342"/><use xlink:href="#8" y="8.684"/><use xlink:href="#20" y="10.855"/><use xlink:href="#21" y="15.197"/><use xlink:href="#29" y="17.368"/><use xlink:href="#1" y="21.71"/><use xlink:href="#36" y="23.881"/><use xlink:href="#21" y="28.223"/><use xlink:href="#39" y="30.394"/><use xlink:href="#8" y="34.736"/><use xlink:href="#10" y="36.907"/></svg><svg x="7476"><use xlink:href="#a"/><use xlink:href="#b" x="3.996" y="36.882"/><use xlink:href="#1" y="2.171"/><use xlink:href="#7" y="4.342"/><use xlink:href="#8" y="8.684"/><use xlink:href="#20" y="10.855"/><use xlink:href="#21" y="15.197"/><use xlink:href="#29" y="17.368"/><use xlink:href="#1" y="21.71"/><use xlink:href="#36" y="23.881"/><use xlink:href="#21" y="28.223"/><use xlink:href="#39" y="30.394"/><use xlink:href="#8" y="34.736"/><use xlink:href="#10" y="36.907"/></svg><svg x="7560"><use xlink:href="#a"/><use xlink:href="#b" x="4.996" y="36.882"/><use xlink:href="#1" y="2.171"/><use xlink:href="#7" y="4.342"/><use xlink:href="#8" y="8.684"/><use xlink:href="#20" y="10.855"/><use xlink:href="#21" y="15.197"/><use xlink:href="#29" y="17.368"/><use xlink:href="#1" y="21.71"/><use xlink:href="#36" y="23.881"/><use xlink:href="#21" y="28.223"/><use xlink:href="#39" y="30.394"/><use xlink:href="#8" y="34.736"/><use xlink:href="#10" y="36.907"/></svg><svg x="7644"><use xlink:href="#a"/><use xlink:href="#b" x="4.996" y="36.882"/><use xlink:href="#1" y="2.171"/><use xlink:href="#7" y="4.342"/><use xlink:href="#8" y="8.684"/><use xlink:href="#20" y="10.855"/><use xlink:href="#21" y="15.197"/><use xlink:href="#29" y="17.368"/><use xlink:href="#1" y="21.71"/><use xlink:href="#36" y="23.881"/><use xlink:href="#21" y="28.223"/><use xlink:href="#39" y="30.394"/><use xlink:href="#8" y="34.736"/><use xlink:href="#10" y="36.907"/></svg><svg x="7728"><use xlink:href="#a"/><use xlink:href="#b" x="5.996" y="36.882"/><use xlink:href="#1" y="2.171"/><use xlink:href="#7" y="4.342"/><use xlink:href="#8" y="8.684"/><use xlink:href="#20" y="10.855"/><use xlink:href="#21" y="15.197"/><use xlink:href="#29" y="17.368"/><use xlink:href="#1" y="21.71"/><use xlink:href="#36" y="23.881"/><use xlink:href="#21" y="28.223"/><use xlink:href="#39" y="30.394"/><use xlink:href="#8" y="34.736"/><use xlink:href="#40" y="36.907"/></svg><svg x="7812"><use xlink:href="#a"/><use xlink:href="#b" x="5.996" y="36.882"/><use xlink:href="#1" y="2.171"/><use xlink:href="#7" y="4.342"/><use xlink:href="#8" y="8.684"/><use xlink:href="#20" y="10.855"/><use xlink:href="#21" y="15.197"/><use xlink:href="#29" y="17.368"/><use xlink:href="#1" y="21.71"/><use xlink:href="#36" y="23.881"/><use xlink:href="#21" y="28.223"/><use xlink:href="#39" y="30.394"/><use xlink:href="#8" y="34.736"/><use xlink:href="#40" y="36.907"/></svg><svg x="7896"><use xlink:href="#a"/><use xlink:href="#b" x="6.996" y="36.882"/><use xlink:href="#1" y="2.171"/><use xlink:href="#7" y="4.342"/><use xlink:href="#8" y="8.684"/><use xlink:href="#20" y="10.855"/><use xlink:href="#21" y="15.197"/><use xlink:href="#29" y="17.368"/><use xlink:href="#1" y="21.71"/><use xlink:href="#36" y="23.881"/><use xlink:href="#21" y="28.223"/><use xlink:href="#39" y="30.394"/><use xlink:href="#8" y="34.736"/><use xlink:href="#41" y="36.907"/></svg><svg x="7980"><use xlink:href="#a"/><use xlink:href="#b" x="6.996" y="36.882"/><use xlink:href="#1" y="2.171"/><use xlink:href="#7" y="4.342"/><use xlink:href="#8" y="8.684"/><use xlink:href="#20" y="10.855"/><use xlink:href="#21" y="15.197"/><use xlink:href="#29" y="17.368"/><use xlink:href="#1" y="21.71"/><use xlink:href="#36" y="23.881"/><use xlink:href="#21" y="28.223"/><use xlink:href="#39" y="30.394"/><use xlink:href="#8" y="34.736"/><use xlink:href="#41" y="36.907"/></svg><svg x="8064"><use xlink:href="#a"/><use xlink:href="#b" x="7.996" y="36.882"/><use xlink:href="#1" y="2.171"/><use xlink:href="#7" y="4.342"/><use xlink:href="#8" y="8.684"/><use xlink:href="#20" y="10.855"/><use xlink:href="#21" y="15.197"/><use xlink:href="#29" y="17.368"/><use xlink:href="#1" y="21.71"/><use xlink:href="#36" y="23.881"/><use xlink:href="#21" y="28.223"/><use xlink:href="#39" y="30.394"/><use xlink:href="#8" y="34.736"/><use xlink:href="#42" y="36.907"/></svg><svg x="8148"><use xlink:href="#a"/><use xlink:href="#b" x="7.996" y="36.882"/><use xlink:href="#1" y="2.171"/><use xlink:href="#7" y="4.342"/><use xlink:href="#8" y="8.684"/><use xlink:href="#20" y="10.855"/><use xlink:href="#21" y="15.197"/><use xlink:href="#29" y="17.368"/><use xlink:href="#1" y="21.71"/><use xlink:href="#36" y="23.881"/><use xlink:href="#21" y="28.223"/><use xlink:href="#39" y="30.394"/><use xlink:href="#8" y="34.736"/><use xlink:href="#42" y="36.907"/></svg><svg x="8232"><use xlink:href="#a"/><use xlink:href="#b" x="-.004" y="39.053"/><use xlink:href="#1" y="2.171"/><use xlink:href="#7" y="4.342"/><use xlink:href="#8" y="8.684"/><use xlink:href="#20" y="10.855"/><use xlink:href="#21" y="15.197"/><use xlink:href="#29" y="17.368"/><use xlink:href="#1" y="21.71"/><use xlink:href="#36" y="23.881"/><use xlink:href="#21" y="28.223"/><use xlink:href="#39" y="30.394"/><use xlink:href="#8" y="34.736"/><use xlink:href="#42" y="36.907"/></svg><svg x="8316"><use xlink:href="#a"/><use xlink:href="#b" x="1.996" y="43.395"/><use xlink:href="#1" y="2.171"/><use xlink:href="#7" y="4.342"/><use xlink:href="#8" y="8.684"/><use xlink:href="#20" y="10.855"/><use xlink:href="#21" y="15.197"/><use xlink:href="#29" y="17.368"/><use xlink:href="#1" y="21.71"/><use xlink:href="#36" y="23.881"/><use xlink:href="#21" y="28.223"/><use xlink:href="#39" y="30.394"/><use xlink:href="#8" y="34.736"/><use xlink:href="#42" y="36.907"/><use xlink:href="#43" y="41.249"/><use xlink:href="#2" y="43.42"/></svg><svg x="8400"><use xlink:href="#a"/><use xlink:href="#b" x="1.996" y="43.395"/><use xlink:href="#1" y="2.171"/><use xlink:href="#7" y="4.342"/><use xlink:href="#8" y="8.684"/><use xlink:href="#20" y="10.855"/><use xlink:href="#21" y="15.197"/><use xlink:href="#29" y="17.368"/><use xlink:href="#1" y="21.71"/><use xlink:href="#36" y="23.881"/><use xlink:href="#21" y="28.223"/><use xlink:href="#39" y="30.394"/><use xlink:href="#8" y="34.736"/><use xlink:href="#42" y="36.907"/><use xlink:href="#43" y="41.249"/><use xlink:href="#2" y="43.42"/></svg></svg></g></g></svg></svg>