<svg xmlns="http://www.w3.org/2000/svg" xmlns:xlink="http://www.w3.org/1999/xlink" width="920" height="884.98"><rect width="920" height="884.98" rx="5" ry="5" class="a"/><svg y="0%" x="0%"><circle cx="20" cy="20" r="6" fill="#ff5f58"/><circle cx="40" cy="20" r="6" fill="#ffbd2e"/><circle cx="60" cy="20" r="6" fill="#18c132"/></svg><svg height="824.98" viewBox="0 0 88 82.498" width="880" x="15" xmlns="http://www.w3.org/2000/svg" xmlns:xlink="http://www.w3.org/1999/xlink" y="50"><style>.a{fill:#282d35}.f,.i,.j,.k,.m{fill:#71bef2;white-space:pre}.i,.j,.k,.m{fill:#d290e4}.j,.k,.m{fill:#dbab79}.k,.m{fill:#b9c0cb}.m{fill:#fff}</style><g font-family="Monaco,Consolas,Menlo,'Bitstream Vera Sans Mono','Powerline Symbols',monospace" font-size="1.67"><defs><symbol id="1"><text y="1.67" class="f">~\projects\PowerShell</text></symbol><symbol id="2"><text y="1.67" class="f">~\projects\PowerShell\src</text></symbol><symbol id="3"><text y="1.67" class="f">C:\Windows\System32\drivers\etc</text></symbol><symbol id="a"><path fill="transparent" d="M0 0h88v39H0z"/></symbol><symbol id="b"><path fill="#6f7683" d="M0 0h1.102v2.171H0z"/></symbol></defs><path class="a" d="M0 0h88v82.498H0z"/><svg width="88"><svg><use xlink:href="#a"/><use xlink:href="#b" x="1.996" y="78.131"/><text y="3.841" class="f">~</text><text y="6.012" class="i">❯</text><text x="2.004" y="6.012" class="j">cd</text><text x="5.01" y="6.012" class="k">pr/pow</text><use xlink:href="#1" y="8.684"/><text y="12.525" class="i">❯</text><text x="2.004" y="12.525" class="j">src</text><use xlink:href="#2" y="15.197"/><text y="19.038" class="i">❯</text><text x="2.004" y="19.038" class="j">cd</text><text x="5.01" y="19.038" class="k">/w/s..32/dr/etc</text><use xlink:href="#3" y="21.71"/><text y="25.551" class="i">❯</text><text x="2.004" y="25.551" class="j">dirs</text><text x="7.014" y="25.551" style="white-space:pre" fill="#6f7783">-u</text><text y="29.893" class="k">n</text><text x="2.004" y="29.893" class="k">Name</text><text x="13.026" y="29.893" class="k">Path</text><text y="32.064" class="k">-</text><text x="2.004" y="32.064" class="k">----</text><text x="13.026" y="32.064" class="k">----</text><text y="34.235" class="k">1</text><text x="2.004" y="34.235" class="k">src</text><text x="13.026" y="34.235" class="k">C:\Users\Nick\projects\PowerShell\src</text><text y="36.406" class="k">2</text><text x="2.004" y="36.406" class="k">PowerShell</text><text x="13.026" y="36.406" class="k">C:\Users\Nick\projects\PowerShell</text><text y="38.577" class="k">3</text><text x="2.004" y="38.577" class="k">Nick</text><text x="13.026" y="38.577" class="k">C:\Users\Nick</text><use xlink:href="#3" y="43.42"/><text y="47.261" class="i">❯</text><text x="2.004" y="47.261" class="j">cd-</text><text x="6.012" y="47.261" class="m">2</text><use xlink:href="#1" y="49.933"/><text y="53.774" class="i">❯</text><text x="2.004" y="53.774" class="j">cd+</text><text x="6.012" y="53.774" class="m">2</text><use xlink:href="#3" y="56.446"/><text y="60.287" class="i">❯</text><text x="2.004" y="60.287" class="j">cd-</text><text x="6.012" y="60.287" class="k">pow</text><use xlink:href="#1" y="62.959"/><text y="66.8" class="i">❯</text><text x="2.004" y="66.8" class="j">cd+</text><use xlink:href="#2" y="69.472"/><text y="73.313" class="i">❯</text><text x="2.004" y="73.313" class="j">up</text><text x="5.01" y="73.313" class="m">2</text><text y="77.655" class="f">~\projects</text><text y="79.826" class="i">❯</text></svg></svg></g></svg></svg>